<?xml version="1.0" encoding="UTF-8"?>
<svg version="1.1" xmlns="http://www.w3.org/2000/svg" viewBox="198.87520647 383.37952605 365.53482607 331.69093396000005" width="100%" height="100%">

<path d="M0 0 C1.0420758 -0.04868005 2.08415159 -0.0973601 3.15780544 -0.1475153 C52.4345037 -2.32359895 102.50474456 3.19347019 151.359375 6.296875 C151.359375 73.286875 151.359375 140.276875 151.359375 209.296875 C150.369375 209.626875 149.379375 209.956875 148.359375 210.296875 C147.67317469 211.62026132 147.01151039 212.95637448 146.359375 214.296875 C143.05461281 218.61142564 139.59477673 221.85561109 135.359375 225.296875 C132.90924613 227.68866747 130.5246816 230.12212231 128.171875 232.609375 C126.359375 234.296875 126.359375 234.296875 124.359375 234.296875 C124.13894531 234.84472656 123.91851562 235.39257812 123.69140625 235.95703125 C121.94067371 239.03236494 119.56990434 241.29846221 117.046875 243.734375 C116.57314453 244.19908203 116.09941406 244.66378906 115.61132812 245.14257812 C114.19671114 246.53010258 112.77805988 247.91351007 111.359375 249.296875 C108.75853269 251.85649358 106.33479922 254.32742867 104.046875 257.171875 C102.07007654 259.59963061 99.93679841 261.5882093 97.546875 263.609375 C94.52581262 266.17614229 91.89167173 268.8622842 89.296875 271.859375 C85.904645 275.76679575 82.44194919 279.11246713 78.359375 282.296875 C77.699375 282.296875 77.039375 282.296875 76.359375 282.296875 C76.0190625 283.10125 76.0190625 283.10125 75.671875 283.921875 C72.64145788 289.40548693 68.37177298 293.32418297 63.6171875 297.29296875 C61.40352899 299.14873174 61.40352899 299.14873174 59.97801208 300.99731445 C57.60910686 303.77508907 55.65647534 305.93927913 52.06835938 306.92848206 C49.29644086 307.14395383 46.60354787 307.13443828 43.82421875 307.05078125 C42.73331436 307.04634506 41.64240997 307.04190887 40.51844788 307.03733826 C36.77675221 307.01237806 33.03785258 306.93567386 29.296875 306.859375 C26.59959775 306.82996103 23.90239817 306.80330813 21.20507812 306.77929688 C13.92840122 306.70600114 6.65297304 306.5858616 -0.62287331 306.45519447 C-8.48913004 306.31459689 -16.35557747 306.19020116 -24.22216797 306.06982422 C-58.69616635 305.54004667 -93.16861185 304.94391472 -127.640625 304.296875 C-127.640625 301.296875 -127.640625 301.296875 -126.31552124 299.89659119 C-125.68207794 299.39051834 -125.04863464 298.8844455 -124.39599609 298.36303711 C-120.7564444 295.30996457 -117.33747725 292.09681829 -113.99072266 288.72875977 C-113.48139883 288.21677001 -112.972075 287.70478025 -112.44731712 287.17727566 C-111.37255705 286.09459874 -110.29871731 285.01100757 -109.22572708 283.92657661 C-107.52189502 282.20515014 -105.81436776 280.48746667 -104.10580444 278.77073669 C-99.25483941 273.89547497 -94.40978167 269.01437196 -89.56884766 264.12915039 C-86.59421797 261.12782008 -83.61480044 258.1313133 -80.63233566 255.1377697 C-79.49889637 253.99811265 -78.36735936 252.85656048 -77.23775101 251.71310616 C-75.66770204 250.12395166 -74.09169099 248.5409509 -72.51416016 246.95922852 C-71.6189566 246.05656754 -70.72375305 245.15390656 -69.80142212 244.22389221 C-67.640625 242.296875 -67.640625 242.296875 -65.640625 242.296875 C-65.310625 241.306875 -64.980625 240.316875 -64.640625 239.296875 C-62.65462163 237.9427818 -60.65244957 236.61229876 -58.640625 235.296875 C-57.898125 234.53375 -57.155625 233.770625 -56.390625 232.984375 C-44.84266571 221.69886933 -29.6876589 215.85059998 -14.88574219 210.16601562 C-13.04832719 209.45470664 -11.22168603 208.71562289 -9.3984375 207.96875 C-3.19159911 205.50074898 2.85809426 204.46843802 9.48828125 203.69140625 C12.29656404 203.46214993 12.29656404 203.46214993 14.359375 202.296875 C17.12684811 202.16070819 19.86766497 202.08400268 22.63671875 202.05859375 C23.47666885 202.050522 24.31661896 202.04245026 25.18202209 202.03413391 C26.97345919 202.02027068 28.76492295 202.0095586 30.55639648 202.00170898 C32.35302707 201.990345 34.1496283 201.97015066 35.94604492 201.94018555 C51.46841565 201.68150345 65.49338698 203.93721473 80.359375 208.296875 C79.73816854 206.37897546 79.11225609 204.46259978 78.484375 202.546875 C77.96230469 200.94585938 77.96230469 200.94585938 77.4296875 199.3125 C76.49045963 196.43660542 76.49045963 196.43660542 75.37304688 194.42773438 C68.30133644 179.56215426 68.87707357 159.6836731 68.921875 143.546875 C68.92208649 142.28816589 68.92208649 142.28816589 68.92230225 141.00402832 C68.96172766 126.74040276 69.61960269 112.51831992 73.859375 98.796875 C74.28743694 97.34924735 74.71452793 95.90133221 75.140625 94.453125 C75.346875 93.76476562 75.553125 93.07640625 75.765625 92.3671875 C76.36379805 90.28145253 76.88488599 88.18800494 77.390625 86.078125 C78.18091052 82.99346218 79.08673329 80.20577034 80.359375 77.296875 C79.62460937 77.64298828 79.62460937 77.64298828 78.875 77.99609375 C69.73208065 81.98429823 60.07297057 84.18032216 50.359375 86.296875 C49.58368164 86.46638672 48.80798828 86.63589844 48.00878906 86.81054688 C26.99761688 91.17391826 3.19969104 91.44204929 -17.640625 86.296875 C-19.67720612 85.91379062 -21.71800675 85.56443948 -23.76074219 85.21582031 C-32.93005984 83.63490348 -42.3760615 81.72431973 -50.640625 77.296875 C-50.13402344 79.01970703 -50.13402344 79.01970703 -49.6171875 80.77734375 C-41.6872377 108.15448086 -41.23302752 136.54411956 -48.640625 164.296875 C-49.300625 164.296875 -49.960625 164.296875 -50.640625 164.296875 C-50.764375 164.9775 -50.888125 165.658125 -51.015625 166.359375 C-52.23970233 172.11253846 -53.96903042 177.06500229 -56.640625 182.296875 C-56.90875 183.18117188 -57.176875 184.06546875 -57.453125 184.9765625 C-58.91928993 189.07603681 -60.92407832 192.62438987 -63.140625 196.359375 C-63.57624756 197.09873291 -64.01187012 197.83809082 -64.46069336 198.59985352 C-68.12863586 204.69908038 -72.24721043 210.31779756 -76.70703125 215.85546875 C-78.63987637 218.12476259 -78.63987637 218.12476259 -79.640625 220.296875 C-80.300625 220.296875 -80.960625 220.296875 -81.640625 220.296875 C-81.888125 220.874375 -82.135625 221.451875 -82.390625 222.046875 C-83.82362488 224.62627479 -85.42487176 226.35809092 -87.640625 228.296875 C-88.300625 228.296875 -88.960625 228.296875 -89.640625 228.296875 C-89.888125 228.874375 -90.135625 229.451875 -90.390625 230.046875 C-91.82362488 232.62627479 -93.42487176 234.35809092 -95.640625 236.296875 C-96.300625 236.296875 -96.960625 236.296875 -97.640625 236.296875 C-97.846875 236.82796875 -98.053125 237.3590625 -98.265625 237.90625 C-100.22023692 241.30460936 -102.86186217 243.80743428 -105.640625 246.546875 C-106.1871875 247.10117187 -106.73375 247.65546875 -107.296875 248.2265625 C-111.3872383 252.296875 -111.3872383 252.296875 -113.640625 252.296875 C-113.888125 252.874375 -114.135625 253.451875 -114.390625 254.046875 C-115.82362488 256.62627479 -117.42487176 258.35809092 -119.640625 260.296875 C-120.300625 260.296875 -120.960625 260.296875 -121.640625 260.296875 C-121.888125 260.874375 -122.135625 261.451875 -122.390625 262.046875 C-123.82362488 264.62627479 -125.42487176 266.35809092 -127.640625 268.296875 C-128.300625 268.296875 -128.960625 268.296875 -129.640625 268.296875 C-129.84816406 268.82796875 -130.05570313 269.3590625 -130.26953125 269.90625 C-132.21255585 273.29408776 -134.8209124 275.80605486 -137.578125 278.546875 C-138.11630859 279.10117187 -138.65449219 279.65546875 -139.20898438 280.2265625 C-140.62638154 281.64570739 -142.12922808 282.97829004 -143.640625 284.296875 C-144.630625 284.296875 -145.620625 284.296875 -146.640625 284.296875 C-146.90465054 266.16066919 -147.16553777 248.02442088 -147.42292786 229.8881197 C-147.54257212 221.46258271 -147.66315278 213.03706128 -147.78613281 204.61157227 C-147.89361945 197.24737437 -147.99915101 189.88315118 -148.10255909 182.51889485 C-148.15711269 178.63827564 -148.21249172 174.75767319 -148.27023315 170.87709999 C-148.28647595 169.77532785 -148.28647595 169.77532785 -148.30304688 168.65129769 C-148.32476752 167.1826689 -148.34681613 165.71404493 -148.36919671 164.24542606 C-148.42247745 160.63391501 -148.46408647 157.02292046 -148.48179913 153.41104889 C-148.52049931 146.64986316 -148.63378888 139.92089203 -149.02523893 133.16966534 C-150.27277918 111.21312071 -148.5430276 96.4750143 -134.55859375 78.46484375 C-133.77352699 77.4266021 -132.98846024 76.38836044 -132.17960358 75.31865692 C-126.56421674 67.94860978 -120.56154488 60.9790635 -114.32306814 54.13216925 C-112.82508507 52.48102425 -111.34335542 50.81641336 -109.86351395 49.14900589 C-78.55703146 14.11577502 -46.64282274 2.05544479 0 0 Z " fill="#5B71FD" transform="translate(361.640625,395.703125)"/>
<path d="M0 0 C2.0339569 0.00368154 4.06792911 0.00206468 6.10187912 -0.00438309 C11.52042605 -0.00707845 16.93575503 0.06215974 22.35354614 0.14694214 C27.44819609 0.21558761 32.54208703 0.2185152 37.63720703 0.22705078 C52.50953634 0.28987009 67.38127437 0.45740589 82.25292969 0.61230469 C115.50042969 0.85980469 148.74792969 1.10730469 183.00292969 1.36230469 C183.00292969 68.35230469 183.00292969 135.34230469 183.00292969 204.36230469 C182.01292969 204.69230469 181.02292969 205.02230469 180.00292969 205.36230469 C179.31672937 206.68569101 178.65506508 208.02180416 178.00292969 209.36230469 C174.69816749 213.67685533 171.23833142 216.92104078 167.00292969 220.36230469 C164.55280082 222.75409715 162.16823629 225.187552 159.81542969 227.67480469 C158.00292969 229.36230469 158.00292969 229.36230469 156.00292969 229.36230469 C155.71417969 230.00167969 155.42542969 230.64105469 155.12792969 231.29980469 C154.00292969 233.36230469 154.00292969 233.36230469 152.00292969 234.36230469 C152.63228228 231.42532592 153.32794725 228.87477835 155.00292969 226.36230469 C156.24042969 225.92917969 156.24042969 225.92917969 157.50292969 225.48730469 C158.32792969 225.11605469 159.15292969 224.74480469 160.00292969 224.36230469 C160.33292969 223.37230469 160.66292969 222.38230469 161.00292969 221.36230469 C161.33292969 220.37230469 161.66292969 219.38230469 162.00292969 218.36230469 C164.50292969 217.17480469 164.50292969 217.17480469 167.00292969 216.36230469 C167.66292969 215.37230469 168.32292969 214.38230469 169.00292969 213.36230469 C169.66292969 213.36230469 170.32292969 213.36230469 171.00292969 213.36230469 C171.00292969 212.37230469 171.00292969 211.38230469 171.00292969 210.36230469 C171.66292969 210.36230469 172.32292969 210.36230469 173.00292969 210.36230469 C173.33292969 209.70230469 173.66292969 209.04230469 174.00292969 208.36230469 C174.66292969 208.69230469 175.32292969 209.02230469 176.00292969 209.36230469 C175.67292969 207.38230469 175.34292969 205.40230469 175.00292969 203.36230469 C175.66292969 203.36230469 176.32292969 203.36230469 177.00292969 203.36230469 C177.00292969 202.70230469 177.00292969 202.04230469 177.00292969 201.36230469 C178.32292969 201.03230469 179.64292969 200.70230469 181.00292969 200.36230469 C181.00292969 135.68230469 181.00292969 71.00230469 181.00292969 4.36230469 C149.92105469 4.50667969 118.83917969 4.65105469 86.81542969 4.79980469 C76.9938208 4.84290771 67.17221191 4.88601074 57.05297852 4.93041992 C48.26466806 4.97366337 48.26466806 4.97366337 39.47636414 5.01820374 C35.55575769 5.03803907 31.63514948 5.05512825 27.71452332 5.0705719 C22.71625506 5.09034977 17.71803005 5.1147819 12.71980035 5.14261067 C10.88374246 5.15203596 9.04767522 5.15981447 7.21160281 5.16577423 C4.73414546 5.17405053 2.25679246 5.18831149 -0.22062683 5.2040863 C-0.94124455 5.20506349 -1.66186228 5.20604067 -2.4043169 5.20704746 C-6.05739687 5.23696703 -9.44356753 5.49754003 -12.99707031 6.36230469 C-12.99707031 5.70230469 -12.99707031 5.04230469 -12.99707031 4.36230469 C-15.36246083 4.48287064 -15.36246083 4.48287064 -17.99707031 5.36230469 C-19.36780817 6.99834664 -20.69762287 8.6690853 -21.99707031 10.36230469 C-27.40247572 14.36230469 -27.40247572 14.36230469 -29.99707031 14.36230469 C-29.99707031 15.02230469 -29.99707031 15.68230469 -29.99707031 16.36230469 C-30.65707031 16.36230469 -31.31707031 16.36230469 -31.99707031 16.36230469 C-31.99707031 17.35230469 -31.99707031 18.34230469 -31.99707031 19.36230469 C-33.97707031 19.69230469 -35.95707031 20.02230469 -37.99707031 20.36230469 C-36.7069637 18.78550772 -35.39906954 17.22213253 -34.04298019 15.70170975 C-32.53524433 13.97768224 -31.10016266 12.18946524 -29.70888138 10.37015915 C-21.12429672 -0.16411347 -12.96901594 -0.30837234 0 0 Z " fill="#6173E9" transform="translate(329.9970703125,400.6376953125)"/>
<path d="M0 0 C0.81381878 0.00252356 1.62763755 0.00504712 2.4661175 0.00764716 C5.17835392 0.01732757 7.89049235 0.03436707 10.60269165 0.05142212 C12.55281393 0.05993379 14.50293817 0.06800461 16.45306396 0.07566833 C21.73770343 0.09781721 27.02228883 0.12649401 32.3068881 0.15662336 C37.83439858 0.18731272 43.36193304 0.21291606 48.88946533 0.23931885 C58.16498992 0.28446725 67.44048406 0.33394926 76.7159729 0.38589478 C87.45368231 0.44596583 98.19140937 0.4987101 108.92917478 0.54766309 C119.25072732 0.5949237 129.57224431 0.64776191 139.89375687 0.703022 C144.29167616 0.72644265 148.68959846 0.74780708 153.08753586 0.76752853 C158.25690977 0.79093057 163.42623469 0.81916529 168.59556198 0.85121727 C170.49795624 0.86221148 172.40036124 0.8714914 174.30277252 0.87898064 C176.88793499 0.88943095 179.47298722 0.90593681 182.05810547 0.92407227 C183.20218559 0.92656261 183.20218559 0.92656261 184.36937845 0.92910326 C189.53395014 0.97486811 189.53395014 0.97486811 190.64810181 2.08901978 C190.74590222 4.70664711 190.77804692 7.29787284 190.76835632 9.91593933 C190.76963796 11.16066266 190.76963796 11.16066266 190.77094549 12.43053192 C190.77260284 15.23281297 190.76707478 18.03503518 190.7616272 20.83731079 C190.76134535 22.83743285 190.761503 24.83755501 190.7620697 26.837677 C190.76235779 32.28580013 190.75645925 37.73390144 190.74949574 43.18201947 C190.74326407 48.86886819 190.74265856 54.55571736 190.74147034 60.24256897 C190.73835647 71.01961936 190.73014234 81.79665967 190.72012085 92.57370561 C190.70896143 104.83951585 190.70344969 117.10532655 190.69842541 129.3711406 C190.68795977 154.61043926 190.67035926 179.84972895 190.64810181 205.08901978 C189.98810181 205.41901978 189.32810181 205.74901978 188.64810181 206.08901978 C188.64810181 139.09901978 188.64810181 72.10901978 188.64810181 3.08901978 C138.59122681 3.18183228 138.59122681 3.18183228 87.52310181 3.27651978 C71.70799683 3.28655029 71.70799683 3.28655029 55.57339478 3.29678345 C46.13577569 3.32665252 46.13577569 3.32665252 36.69818115 3.36314392 C32.48920598 3.37924047 28.28047227 3.38132095 24.07147217 3.37498474 C18.70433981 3.36736169 13.337777 3.3835397 7.97074914 3.41703665 C5.99998479 3.42526866 4.02916346 3.42510214 2.05840468 3.41562879 C-0.60298544 3.40403671 -3.26246475 3.42306575 -5.92370605 3.44978333 C-6.69586897 3.43910985 -7.46803188 3.42843637 -8.26359367 3.41743946 C-14.05200501 3.52558602 -16.40809198 5.16624667 -20.35189819 9.08901978 C-18.24119709 3.0816397 -18.24119709 3.0816397 -15.35189819 1.08901978 C-10.2213641 0.13875391 -5.20028693 -0.04248355 0 0 Z " fill="#04082E" transform="translate(324.3518981933594,398.9109802246094)"/>
<path d="M0 0 C0.495 0.99 0.495 0.99 1 2 C0.67 2.99 0.34 3.98 0 5 C0.66 5 1.32 5 2 5 C2 5.66 2 6.32 2 7 C1.05125 7.433125 0.1025 7.86625 -0.875 8.3125 C-4.20041937 9.79302201 -4.20041937 9.79302201 -6 13 C-6.66 13 -7.32 13 -8 13 C-8.99 13.33 -9.98 13.66 -11 14 C-11.165 15.27875 -11.33 16.5575 -11.5 17.875 C-11.63921875 18.95394531 -11.63921875 18.95394531 -11.78125 20.0546875 C-12.0372485 22.00498344 -12.0372485 22.00498344 -12 24 C-12.886875 23.9175 -13.77375 23.835 -14.6875 23.75 C-18.78211541 24.05902758 -20.20218425 25.04230906 -23 28 C-23.66059685 30.58266237 -23.66059685 30.58266237 -24 33 C-7.33336697 33.31430132 9.33330092 33.62672099 26 33.9375 C27.22795792 33.96039848 28.45591583 33.98329697 29.72108459 34.00688934 C60.73012506 34.58466868 91.73914813 35.15287966 122.75 35.625 C123.42285034 35.63524578 124.09570068 35.64549156 124.78894043 35.65604782 C132.52591796 35.77361352 140.26293033 35.88866229 148 36 C148.33 34.68 148.66 33.36 149 32 C149.99 32 150.98 32 152 32 C152 30.68 152 29.36 152 28 C153.32 28 154.64 28 156 28 C156.0825 27.2575 156.165 26.515 156.25 25.75 C157.16752658 22.38573588 158.26219512 21.12940379 161 19 C161.86625 18.835 162.7325 18.67 163.625 18.5 C164.40875 18.335 165.1925 18.17 166 18 C167.36020151 16.03241727 167.36020151 16.03241727 168 14 C168.66 14 169.32 14 170 14 C167.32353713 20.32618497 162.41798245 24.68875524 157.2578125 28.99609375 C155.04415399 30.85185674 155.04415399 30.85185674 153.61863708 32.70043945 C151.24973186 35.47821407 149.29710034 37.64240413 145.70898438 38.63160706 C142.93706586 38.84707883 140.24417287 38.83756328 137.46484375 38.75390625 C136.37393936 38.74947006 135.28303497 38.74503387 134.15907288 38.74046326 C130.41737721 38.71550306 126.67847758 38.63879886 122.9375 38.5625 C120.24022275 38.53308603 117.54302317 38.50643313 114.84570312 38.48242188 C107.56902622 38.40912614 100.29359804 38.2889866 93.01775169 38.15831947 C85.15149496 38.01772189 77.28504753 37.89332616 69.41845703 37.77294922 C34.94445865 37.24317167 0.47201315 36.64703972 -34 36 C-34 33 -34 33 -32.72460938 31.64819336 C-32.10392578 31.15456299 -31.48324219 30.66093262 -30.84375 30.15234375 C-26.87140932 26.82366938 -23.18744884 23.29535404 -19.53125 19.62890625 C-18.96140381 19.05804291 -18.39155762 18.48717957 -17.80444336 17.89901733 C-16.03431948 16.12213231 -14.26710209 14.34238969 -12.5 12.5625 C-11.28408886 11.3415631 -10.06794484 10.12085808 -8.8515625 8.90039062 C-5.89835034 5.93625987 -2.94830602 2.96901042 0 0 Z " fill="#5E6BD0" transform="translate(268,664)"/>
<path d="M0 0 C2.72396144 -0.29432332 5.22092309 -0.39115593 7.94717407 -0.36076355 C9.19016518 -0.36461563 9.19016518 -0.36461563 10.45826721 -0.36854553 C13.25964361 -0.37353372 16.06048872 -0.35690485 18.86181641 -0.34057617 C20.89455841 -0.33965772 22.92730138 -0.34005669 24.96004295 -0.34167194 C30.41938087 -0.34235114 35.87852279 -0.32492366 41.33781433 -0.30384064 C46.45462687 -0.286796 51.57139097 -0.28595348 56.68823242 -0.28381348 C71.66718106 -0.26805154 86.64609298 -0.22616834 101.625 -0.1875 C135.07875 -0.125625 168.5325 -0.06375 203 0 C203 66.99 203 133.98 203 203 C202.01 203.33 201.02 203.66 200 204 C199.31379969 205.32338632 198.65213539 206.65949948 198 208 C194.69523781 212.31455064 191.23540173 215.55873609 187 219 C184.54987113 221.39179247 182.1653066 223.82524731 179.8125 226.3125 C178 228 178 228 176 228 C175.71125 228.639375 175.4225 229.27875 175.125 229.9375 C174 232 174 232 172 233 C172.62935259 230.06302123 173.32501756 227.51247366 175 225 C176.2375 224.566875 176.2375 224.566875 177.5 224.125 C178.325 223.75375 179.15 223.3825 180 223 C180.33 222.01 180.66 221.02 181 220 C181.33 219.01 181.66 218.02 182 217 C184.5 215.8125 184.5 215.8125 187 215 C187.66 214.01 188.32 213.02 189 212 C189.66 212 190.32 212 191 212 C191 211.01 191 210.02 191 209 C191.66 209 192.32 209 193 209 C193.33 208.34 193.66 207.68 194 207 C194.66 207.33 195.32 207.66 196 208 C196.33 206.35 196.66 204.7 197 203 C198.32 202.67 199.64 202.34 201 202 C201.495 102.505 201.495 102.505 202 1 C169.45375 1.144375 136.9075 1.28875 103.375 1.4375 C93.09263184 1.48060303 82.81026367 1.52370605 72.21630859 1.56811523 C63.0115478 1.61136114 63.0115478 1.61136114 53.80679321 1.65589905 C49.7020637 1.6757254 45.5973325 1.69281764 41.49258423 1.70826721 C36.25820976 1.7280576 31.0238764 1.75249308 25.78953862 1.78030598 C23.86760873 1.78972474 21.94566995 1.7975055 20.02372622 1.80346954 C17.4285634 1.81175706 14.83349944 1.82602109 12.2383728 1.84178162 C11.10930228 1.84324739 11.10930228 1.84324739 9.95742226 1.84474277 C5.87083101 1.87662249 2.01018302 2.20911236 -2 3 C-1.34 2.01 -0.68 1.02 0 0 Z " fill="#5F68C3" transform="translate(310,402)"/>
<path d="M0 0 C1.16499023 -0.0309375 1.16499023 -0.0309375 2.35351562 -0.0625 C8.08632865 -0.10200259 8.08632865 -0.10200259 10.28613281 1.52416992 C12.51811164 4.54212293 11.9497788 8.20816201 11.875 11.8125 C11.87983398 12.98329102 11.87983398 12.98329102 11.88476562 14.17773438 C11.82966981 19.98283019 11.82966981 19.98283019 9.5625 22.25 C7.59130859 22.47705078 7.59130859 22.47705078 5.2109375 22.4453125 C4.36015625 22.43886719 3.509375 22.43242187 2.6328125 22.42578125 C1.29863281 22.40064453 1.29863281 22.40064453 -0.0625 22.375 C-1.40828125 22.36146484 -1.40828125 22.36146484 -2.78125 22.34765625 C-5.00026586 22.3240497 -7.21875077 22.2911231 -9.4375 22.25 C-10.61176264 19.90147472 -10.55258173 18.51225935 -10.53515625 15.8984375 C-10.53193359 15.04765625 -10.52871094 14.196875 -10.52539062 13.3203125 C-10.51701172 12.43085938 -10.50863281 11.54140625 -10.5 10.625 C-10.49548828 9.7278125 -10.49097656 8.830625 -10.48632812 7.90625 C-10.47452591 5.68743352 -10.45806155 3.46874982 -10.4375 1.25 C-7.16728041 -0.38510979 -3.59016249 0.02371701 0 0 Z " fill="#07092F" transform="translate(539.4375,401.75)"/>
<path d="M0 0 C39.9293516 -0.14532796 79.82346732 0.19327512 119.74731445 0.92712402 C125.90825068 1.03984078 132.06929565 1.14637883 138.23033094 1.25351524 C152.15367423 1.49576235 166.07688177 1.74515756 180 2 C180 2.99 180 3.98 180 5 C158.70589966 5.07046001 137.42553445 4.90332884 116.13476562 4.53643799 C112.48570934 4.4741528 108.83660249 4.41497411 105.1875 4.35546875 C98.12495022 4.23987548 91.06245802 4.12108183 84 4 C84 3.34 84 2.68 84 2 C82.99188766 2.00444122 81.98377533 2.00888245 80.94511414 2.01345825 C71.45414946 2.05396545 61.96320227 2.08396569 52.47217083 2.10362434 C47.59249461 2.11407073 42.71288807 2.12824552 37.83325195 2.15087891 C33.12595241 2.17257681 28.41871997 2.18456219 23.71137428 2.18975449 C21.91359208 2.19345574 20.11581363 2.20068316 18.31805992 2.21146011 C15.80399962 2.2259345 13.29021817 2.22797965 10.77612305 2.22705078 C10.02949905 2.23424133 9.28287506 2.24143188 8.5136261 2.24884033 C4.78487162 2.23388917 3.1871011 2.12473406 0 0 Z " fill="#040832" transform="translate(236,700)"/>
<path d="M0 0 C0.33 0 0.66 0 1 0 C3.03160854 60.30807074 3.18053449 120.66463814 3 181 C2.67 181 2.34 181 2 181 C0.9736629 165.12640592 0.69886134 149.25280215 0.46777344 133.35070801 C0.42736136 130.62989955 0.38338729 127.90915369 0.33933067 125.18840218 C-0.07383471 99.57834379 -0.07383471 99.57834379 0.08227539 87.53198242 C0.29089951 85.06297656 0.29089951 85.06297656 -1 84 C-1.10230031 81.30390424 -1.13945547 78.63412278 -1.1328125 75.9375 C-1.13413177 75.09463943 -1.13545105 74.25177887 -1.1368103 73.38337708 C-1.13874787 70.58888233 -1.13233484 67.79448483 -1.125 65 C-1.12411377 64.05047455 -1.12322754 63.1009491 -1.12231445 62.12265015 C-1.09971254 41.40647568 -0.61686374 20.70595007 0 0 Z " fill="#070D39" transform="translate(212,499)"/>
<path d="M0 0 C1 2 1 2 0.3125 4.375 C-1.1208052 7.2416104 -2.64172527 8.84980833 -5 11 C-5.680625 11.7425 -6.36125 12.485 -7.0625 13.25 C-9 15 -9 15 -12 15 C-12 74.73 -12 134.46 -12 196 C-12.33 196 -12.66 196 -13 196 C-13.26402554 177.86379419 -13.52491277 159.72754588 -13.78230286 141.5912447 C-13.90194712 133.16570771 -14.02252778 124.74018628 -14.14550781 116.31469727 C-14.25299445 108.95049937 -14.35852601 101.58627618 -14.46193409 94.22201985 C-14.51648769 90.34140064 -14.57186672 86.46079819 -14.62960815 82.58022499 C-14.65146233 81.10250015 -14.67328268 79.6247748 -14.69506836 78.14704895 C-14.70582618 77.42086398 -14.716584 76.69467901 -14.72766781 75.94648844 C-14.77957956 72.34675835 -14.82461195 68.74715015 -14.8556366 65.14717579 C-14.86809982 63.71771546 -14.88057647 62.28825526 -14.89306641 60.85879517 C-14.89907647 60.14838921 -14.90508654 59.43798326 -14.91127872 58.70604986 C-14.95883737 53.96451919 -15.07213387 49.22785424 -15.21693134 44.48833948 C-15.31390103 41.11494253 -15.37983635 37.74131167 -15.4409008 34.3670944 C-15.47716745 32.75828348 -15.52678012 31.14970764 -15.59094429 29.54176772 C-15.94069394 20.62084456 -15.79864343 14.07776561 -9.53517151 7.05237293 C-6.53160515 4.30013825 -3.48944632 2.1061301 0 0 Z " fill="#5763C1" transform="translate(228,484)"/>
<path d="M0 0 C0.33 0 0.66 0 1 0 C1 5.94 1 11.88 1 18 C0.34 18.33 -0.32 18.66 -1 19 C-1.07521336 24.95496994 -1.12909431 30.90965209 -1.16479492 36.86499023 C-1.17970709 38.88294299 -1.20004401 40.90086437 -1.22631836 42.91870117 C-1.42659333 58.71686223 -0.71273256 73.10446917 5 88 C5.32185851 90.78085756 5.15077055 93.18561642 5 96 C5.66 96 6.32 96 7 96 C7.99 98.64 8.98 101.28 10 104 C9.34 104 8.68 104 8 104 C8.33 105.32 8.66 106.64 9 108 C8.34 108 7.68 108 7 108 C6.73445313 107.18015625 6.46890625 106.3603125 6.1953125 105.515625 C5.84210938 104.43796875 5.48890625 103.3603125 5.125 102.25 C4.77695312 101.18265625 4.42890625 100.1153125 4.0703125 99.015625 C3.13108463 96.13973042 3.13108463 96.13973042 2.01367188 94.13085938 C-5.05803856 79.26527926 -4.48230143 59.3867981 -4.4375 43.25 C-4.43735901 42.4108606 -4.43721802 41.57172119 -4.43707275 40.70715332 C-4.39928036 27.03433218 -3.85205737 13.20705384 0 0 Z " fill="#5D6DD6" transform="translate(435,496)"/>
<path d="M0 0 C0.83560796 0.00152028 1.67121591 0.00304056 2.53214532 0.0046069 C5.34227855 0.01340206 8.15176772 0.04379522 10.96174622 0.07402039 C12.9720089 0.08472465 14.98227903 0.09410259 16.99255371 0.10224915 C22.45929155 0.12817977 27.92573982 0.17273582 33.39232421 0.22054696 C39.10178817 0.26734437 44.81133973 0.29713648 50.52090454 0.32870483 C61.3369442 0.39110519 72.15281695 0.46887812 82.96871406 0.55212516 C95.28044934 0.64614041 107.59227258 0.72309286 119.9041332 0.79858649 C145.23443543 0.95428998 170.56455088 1.13150434 195.89460754 1.32279968 C195.89460754 1.65279968 195.89460754 1.98279968 195.89460754 2.32279968 C194.85393064 2.32334445 193.81325375 2.32388922 192.74104118 2.32445049 C167.4278505 2.33884111 142.11483187 2.38183783 116.80174065 2.45489025 C104.56054056 2.48955441 92.31945325 2.51489766 80.07820129 2.51835632 C69.40965089 2.52139422 58.74130125 2.54186134 48.07282841 2.58332425 C42.4230574 2.6046716 36.77357195 2.61724583 31.12376022 2.60895348 C25.80652726 2.6014245 20.48987345 2.61718963 15.17274666 2.65085983 C13.22086481 2.65910695 11.26892552 2.6588268 9.31704903 2.6493969 C6.65161517 2.63779405 3.98808545 2.65686308 1.32279968 2.68356323 C0.1642215 2.66755334 0.1642215 2.66755334 -1.0177623 2.65122002 C-6.80586831 2.7593926 -9.1618222 4.40026127 -13.10539246 8.32279968 C-10.45488069 0.77903543 -7.81159496 -0.12567446 0 0 Z " fill="#060D43" transform="translate(317.1053924560547,399.6772003173828)"/>
<path d="M0 0 C0.8399501 -0.00807175 1.67990021 -0.01614349 2.54530334 -0.02445984 C4.33674044 -0.03832307 6.1282042 -0.04903515 7.91967773 -0.05688477 C9.71630832 -0.06824875 11.51290955 -0.08844309 13.30932617 -0.1184082 C28.8316969 -0.3770903 42.85666823 1.87862098 57.72265625 6.23828125 C54.66148057 8.86214612 53.99092498 9.23828125 49.72265625 9.23828125 C49.72265625 8.57828125 49.72265625 7.91828125 49.72265625 7.23828125 C46.79814392 5.59728403 44.44084609 4.91222163 41.109375 4.60546875 C40.20316406 4.52135742 39.29695313 4.43724609 38.36328125 4.35058594 C37.38875 4.27227539 36.41421875 4.19396484 35.41015625 4.11328125 C34.39050781 4.02981445 33.37085938 3.94634766 32.3203125 3.86035156 C17.19682061 2.72237383 2.20942761 2.87075783 -12.90234375 4.11328125 C-13.86849609 4.1915918 -14.83464844 4.26990234 -15.83007812 4.35058594 C-20.4016795 4.77642033 -24.01638091 5.48004008 -28.27734375 7.23828125 C-30.58984375 6.86328125 -30.58984375 6.86328125 -32.27734375 6.23828125 C-26.01667397 3.48358655 -20.03394907 2.49551145 -13.25390625 1.66796875 C-1.81478865 0.01665256 -1.81478865 0.01665256 0 0 Z " fill="#606FDD" transform="translate(384.27734375,597.76171875)"/>
<path d="M0 0 C0.33 0 0.66 0 1 0 C1 2.31 1 4.62 1 7 C1.66 7.33 2.32 7.66 3 8 C2.67 8.33 2.34 8.66 2 9 C1.93483878 11.58801098 1.93498867 14.14784373 1.97827148 16.73486328 C1.98787903 17.54662521 1.99748657 18.35838715 2.00738525 19.19474792 C2.04058475 21.90335176 2.08090557 24.61180407 2.12109375 27.3203125 C2.14542478 29.21433917 2.16926679 31.10837218 2.19264221 33.00241089 C2.25570824 38.02097929 2.32458368 43.03945089 2.39489746 48.05792236 C2.50518884 55.99811141 2.60706711 63.93841586 2.70903397 71.87871552 C2.73369731 73.79475937 2.75857601 75.71080046 2.78367233 77.62683868 C2.96360869 91.41876648 3.07898042 105.20670279 3 119 C5.31 119.33 7.62 119.66 10 120 C9.07038578 121.15224028 8.1309875 122.29659176 7.1875 123.4375 C6.66542969 124.07558594 6.14335937 124.71367188 5.60546875 125.37109375 C4 127 4 127 1 128 C0.86672949 117.21708753 0.73622434 106.43414499 0.60884857 95.65116119 C0.54956524 90.6391694 0.48947719 85.62719051 0.42724609 80.61523438 C0.09431491 53.74212698 -0.07268096 26.87518431 0 0 Z " fill="#6474E8" transform="translate(215,552)"/>
<path d="M0 0 C12.4447516 18.6671274 9.45193729 50.04180934 6 71 C5.67 71 5.34 71 5 71 C5 68.36 5 65.72 5 63 C4.34 63 3.68 63 3 63 C2.67 59.7 2.34 56.4 2 53 C2.66 53.33 3.32 53.66 4 54 C4.33 46.41 4.66 38.82 5 31 C4.34 31 3.68 31 3 31 C2.92652344 29.42412109 2.92652344 29.42412109 2.8515625 27.81640625 C2.45491189 18.77537417 2.45491189 18.77537417 0.9375 9.875 C0.09567094 6.39543987 -0.18228623 3.55458154 0 0 Z " fill="#5966CB" transform="translate(310,473)"/>
<path d="M0 0 C0.33 0 0.66 0 1 0 C0.93143799 0.92659424 0.86287598 1.85318848 0.79223633 2.80786133 C0.0376162 13.77045823 -0.27612662 24.69975039 -0.3125 35.6875 C-0.31644775 36.56308563 -0.32039551 37.43867126 -0.32446289 38.34078979 C-0.34948148 50.24868826 0.20563663 61.52297393 3.125 73.12890625 C4.0023031 77.01018917 4.16562624 80.06120103 4 84 C3.01 84 2.02 84 1 84 C0.01 75.42 -0.98 66.84 -2 58 C-2.33 58 -2.66 58 -3 58 C-3.76707402 47.39794128 -4.12803826 36.81777313 -4.1875 26.1875 C-4.20039063 25.06102051 -4.21328125 23.93454102 -4.2265625 22.77392578 C-4.22785156 21.70770996 -4.22914063 20.64149414 -4.23046875 19.54296875 C-4.23457764 18.59446045 -4.23868652 17.64595215 -4.24291992 16.66870117 C-3.97924091 13.7719421 -3.17568901 11.64593026 -2 9 C-1.58911437 7.40464778 -1.21195834 5.80008636 -0.875 4.1875 C-0.70742188 3.39730469 -0.53984375 2.60710937 -0.3671875 1.79296875 C-0.24601562 1.20128906 -0.12484375 0.60960937 0 0 Z " fill="#090D39" transform="translate(432,504)"/>
<path d="M0 0 C0.73828125 1.734375 0.73828125 1.734375 1 4 C-0.58203125 6.140625 -0.58203125 6.140625 -2.8125 8.25 C-3.54082031 8.95640625 -4.26914062 9.6628125 -5.01953125 10.390625 C-7 12 -7 12 -9 12 C-8.505 14.97 -8.505 14.97 -8 18 C-12 19.33333333 -16 20.66666667 -20 22 C-20.33 22.99 -20.66 23.98 -21 25 C-21.66 25 -22.32 25 -23 25 C-23.433125 26.2065625 -23.433125 26.2065625 -23.875 27.4375 C-25 30 -25 30 -27 31 C-27.65555119 33.52733235 -27.65555119 33.52733235 -28 36 C-28.99 36 -29.98 36 -31 36 C-33.35407028 38.17751501 -35.50979793 40.41175752 -37.5625 42.875 C-38.036875 43.24625 -38.51125 43.6175 -39 44 C-41.1875 43.6875 -41.1875 43.6875 -43 43 C-40.25882525 39.27200234 -37.25724847 36.41591165 -33.734375 33.47265625 C-30.56194832 30.77895162 -27.71232192 27.93338735 -25.1875 24.625 C-22.72434879 21.66921855 -20.00378478 19.32293866 -17.0859375 16.828125 C-13.9016307 14.03738421 -10.9597097 11.02483779 -8 8 C-5.33333333 5.33333333 -2.66666667 2.66666667 0 0 Z " fill="#080B27" transform="translate(271,626)"/>
<path d="M0 0 C1.16499023 -0.0309375 1.16499023 -0.0309375 2.35351562 -0.0625 C8.08632865 -0.10200259 8.08632865 -0.10200259 10.28613281 1.52416992 C12.51811164 4.54212293 11.9497788 8.20816201 11.875 11.8125 C11.87983398 12.98329102 11.87983398 12.98329102 11.88476562 14.17773438 C11.82966981 19.98283019 11.82966981 19.98283019 9.5625 22.25 C7.59130859 22.47705078 7.59130859 22.47705078 5.2109375 22.4453125 C4.36015625 22.43886719 3.509375 22.43242187 2.6328125 22.42578125 C1.29863281 22.40064453 1.29863281 22.40064453 -0.0625 22.375 C-1.40828125 22.36146484 -1.40828125 22.36146484 -2.78125 22.34765625 C-5.00026586 22.3240497 -7.21875077 22.2911231 -9.4375 22.25 C-10.61176264 19.90147472 -10.55258173 18.51225935 -10.53515625 15.8984375 C-10.53193359 15.04765625 -10.52871094 14.196875 -10.52539062 13.3203125 C-10.51701172 12.43085938 -10.50863281 11.54140625 -10.5 10.625 C-10.49548828 9.7278125 -10.49097656 8.830625 -10.48632812 7.90625 C-10.47452591 5.68743352 -10.45806155 3.46874982 -10.4375 1.25 C-7.16728041 -0.38510979 -3.59016249 0.02371701 0 0 Z M-7.4375 3.25 C-7.4375 8.86 -7.4375 14.47 -7.4375 20.25 C-4.818125 20.270625 -2.19875 20.29125 0.5 20.3125 C1.73931274 20.32615601 1.73931274 20.32615601 3.00366211 20.34008789 C4.85683759 20.34723945 6.70999308 20.3002852 8.5625 20.25 C9.98024838 19.06147145 9.98024838 19.06147145 9.66015625 15.65234375 C9.65441272 14.16402745 9.64139891 12.67573704 9.625 11.1875 C9.5940625 7.2584375 9.5940625 7.2584375 9.5625 3.25 C3.9525 3.25 -1.6575 3.25 -7.4375 3.25 Z " fill="#565CA1" transform="translate(539.4375,401.75)"/>
<path d="M0 0 C0 0.66 0 1.32 0 2 C-1.28913487 2.67154933 -2.58140204 3.33708859 -3.875 4 C-4.59429687 4.37125 -5.31359375 4.7425 -6.0546875 5.125 C-8 6 -8 6 -10 6 C-10 5.34 -10 4.68 -10 4 C-10.83402344 4.27714844 -11.66804688 4.55429687 -12.52734375 4.83984375 C-19.07359066 6.94694041 -25.14411718 8.57509604 -32 9 C-34.12531007 9.16266489 -36.2503029 9.32951532 -38.375 9.5 C-39.87160156 9.60828125 -39.87160156 9.60828125 -41.3984375 9.71875 C-44.1102532 9.9187346 -44.1102532 9.9187346 -47 11 C-49.43684349 10.97136773 -51.82848923 10.88248324 -54.2578125 10.73046875 C-54.96146942 10.68940506 -55.66512634 10.64834137 -56.3901062 10.60603333 C-57.87467642 10.51733725 -59.35906316 10.42552268 -60.84326172 10.33081055 C-63.12285047 10.18763501 -65.40297482 10.06110131 -67.68359375 9.93554688 C-69.12506222 9.84736539 -70.56647129 9.75820642 -72.0078125 9.66796875 C-73.98225342 9.54844849 -73.98225342 9.54844849 -75.99658203 9.42651367 C-77.48327393 9.2153894 -77.48327393 9.2153894 -79 9 C-79.33 8.34 -79.66 7.68 -80 7 C-78.91396484 7.02094727 -77.82792969 7.04189453 -76.70898438 7.06347656 C-56.12386531 7.42545519 -36.16148415 7.76615396 -16 3 C-14.97326172 2.76047607 -14.97326172 2.76047607 -13.92578125 2.51611328 C-11.32523183 1.89881792 -8.74256797 1.247883 -6.171875 0.515625 C-4 0 -4 0 0 0 Z " fill="#000322" transform="translate(432,477)"/>
<path d="M0 0 C0.375 2.25 0.375 2.25 0 5 C-1.40250269 5.96839471 -2.81766589 6.92394842 -4.29296875 7.77734375 C-6.33543679 9.24025564 -7.49357466 10.82392546 -8.9375 12.875 C-11.41632809 16.37528744 -14.0674187 18.99155683 -17.39453125 21.6796875 C-19.18503017 23.10270737 -19.18503017 23.10270737 -21.3125 25.375 C-23 27 -23 27 -25 27 C-25.1546875 27.8971875 -25.1546875 27.8971875 -25.3125 28.8125 C-26.09824033 31.31258286 -26.96918853 32.37535082 -29 34 C-29.66 34 -30.32 34 -31 34 C-31.20625 34.639375 -31.4125 35.27875 -31.625 35.9375 C-33 38 -33 38 -36.125 38.75 C-37.07375 38.8325 -38.0225 38.915 -39 39 C-34.69849478 33.86187175 -30.19337975 29.0461448 -25.44921875 24.31640625 C-24.74980667 23.61603745 -24.05039459 22.91566864 -23.32978821 22.19407654 C-21.86455991 20.72817238 -20.39808666 19.26351161 -18.93041992 17.80004883 C-16.67314318 15.54817756 -14.42131555 13.2909546 -12.16992188 11.03320312 C-10.74250846 9.60644965 -9.31478535 8.18000594 -7.88671875 6.75390625 C-6.87275276 5.73690392 -6.87275276 5.73690392 -5.83830261 4.69935608 C-5.21708023 4.08128586 -4.59585785 3.46321564 -3.95581055 2.82641602 C-3.40765182 2.27905289 -2.8594931 1.73168976 -2.29472351 1.16773987 C-1 0 -1 0 0 0 Z " fill="#5B6BD1" transform="translate(276,437)"/>
<path d="M0 0 C1.670625 0.061875 1.670625 0.061875 3.375 0.125 C4 2.9375 4 2.9375 4.375 6.125 C3.715 7.115 3.055 8.105 2.375 9.125 C1.92360541 11.1742094 1.92360541 11.1742094 1.75 13.3125 C1.564375 15.1996875 1.564375 15.1996875 1.375 17.125 C0.715 17.125 0.055 17.125 -0.625 17.125 C-0.955 19.765 -1.285 22.405 -1.625 25.125 C-2.285 25.125 -2.945 25.125 -3.625 25.125 C-3.19793819 22.60200364 -2.75870614 20.08212176 -2.3125 17.5625 C-2.19455078 16.85802734 -2.07660156 16.15355469 -1.95507812 15.42773438 C-1.09115613 10.62078378 0.29974406 6.54872484 2.375 2.125 C1.88515625 2.35574219 1.3953125 2.58648437 0.890625 2.82421875 C-11.65464077 8.2965502 -25.93286523 11.81887504 -39.625 12.125 C-39.625 11.465 -39.625 10.805 -39.625 10.125 C-34.89142751 7.95834642 -30.70339322 7.76968136 -25.5625 7.56640625 C-22.24794259 7.06834111 -20.46194468 5.85452149 -17.625 4.125 C-14.58203125 3.46484375 -14.58203125 3.46484375 -11.4375 3.0625 C-6.82891807 2.46582786 -4.358137 0.15028059 0 0 Z " fill="#5E6CD5" transform="translate(439.625,470.875)"/>
<path d="M0 0 C7.05889737 0.70588974 14.01204964 1.78213386 21 3 C21 3.66 21 4.32 21 5 C21.62648438 4.98839844 22.25296875 4.97679687 22.8984375 4.96484375 C23.71570313 4.95582031 24.53296875 4.94679688 25.375 4.9375 C26.18710937 4.92589844 26.99921875 4.91429687 27.8359375 4.90234375 C30 5 30 5 32 6 C33.5912342 6.21941219 35.18929031 6.39059852 36.7890625 6.53515625 C38.20058594 6.66567383 38.20058594 6.66567383 39.640625 6.79882812 C41.11789062 6.9293457 41.11789062 6.9293457 42.625 7.0625 C43.61757813 7.15337891 44.61015625 7.24425781 45.6328125 7.33789062 C48.08823868 7.56218436 50.54394389 7.78273107 53 8 C53 8.66 53 9.32 53 10 C63.56 9.67 74.12 9.34 85 9 C85 9.33 85 9.66 85 10 C77.1984758 11.24663531 69.38115588 11.2413228 61.5 11.25 C60.78279785 11.25133942 60.0655957 11.25267883 59.32666016 11.25405884 C48.85869775 11.24981333 39.21497974 10.52193158 29 8 C26.96308493 7.61685281 24.92192424 7.2674406 22.87890625 6.91845703 C15.02293884 5.5651961 7.55505752 3.54853824 0 1 C0 0.67 0 0.34 0 0 Z " fill="#4C5AB4" transform="translate(315,474)"/>
<path d="M0 0 C0 0.33 0 0.66 0 1 C0.91523438 1.06058594 1.83046875 1.12117187 2.7734375 1.18359375 C3.96195312 1.26738281 5.15046875 1.35117187 6.375 1.4375 C7.55835938 1.51871094 8.74171875 1.59992187 9.9609375 1.68359375 C13 2 13 2 15 3 C15 3.66 15 4.32 15 5 C13.30399658 4.75769653 13.30399658 4.75769653 11.57373047 4.51049805 C6.9788948 3.93886968 2.44619768 3.83844762 -2.1796875 3.83203125 C-3.45889572 3.82703865 -3.45889572 3.82703865 -4.76394653 3.82194519 C-6.55730658 3.81691233 -8.35067587 3.81453573 -10.14404297 3.81469727 C-12.86051122 3.81251166 -15.57657214 3.79431936 -18.29296875 3.77539062 C-26.74152444 3.74806284 -34.79110244 3.74915667 -43 6 C-44.60288152 6.35993824 -46.20694091 6.71470015 -47.8125 7.0625 C-48.53953125 7.22621094 -49.2665625 7.38992188 -50.015625 7.55859375 C-52.33696144 8.07495402 -54.66529421 8.54812146 -57 9 C-57 8.34 -57 7.68 -57 7 C-55.02 6.67 -53.04 6.34 -51 6 C-51 5.34 -51 4.68 -51 4 C-49.97519531 3.86722656 -48.95039063 3.73445312 -47.89453125 3.59765625 C-46.5338426 3.41935912 -45.17316615 3.24096877 -43.8125 3.0625 C-43.13896484 2.97548828 -42.46542969 2.88847656 -41.77148438 2.79882812 C-39.01948417 2.43636956 -36.2923205 2.06194404 -33.57592773 1.48632812 C-31.02509757 1.00473835 -28.607219 0.7969324 -26.015625 0.68359375 C-25.07976562 0.64169922 -24.14390625 0.59980469 -23.1796875 0.55664062 C-22.21289062 0.51732422 -21.24609375 0.47800781 -20.25 0.4375 C-19.29867187 0.39431641 -18.34734375 0.35113281 -17.3671875 0.30664062 C-11.57234053 0.05658901 -5.80004808 -0.04176989 0 0 Z " fill="#010529" transform="translate(409,595)"/>
<path d="M0 0 C0.33 0.66 0.66 1.32 1 2 C0.67 2.99 0.34 3.98 0 5 C0.66 5 1.32 5 2 5 C2 5.66 2 6.32 2 7 C1.05125 7.433125 0.1025 7.86625 -0.875 8.3125 C-4.20041937 9.79302201 -4.20041937 9.79302201 -6 13 C-6.66 13 -7.32 13 -8 13 C-8.99 13.33 -9.98 13.66 -11 14 C-11.165 15.27875 -11.33 16.5575 -11.5 17.875 C-11.63921875 18.95394531 -11.63921875 18.95394531 -11.78125 20.0546875 C-12.0372485 22.00498344 -12.0372485 22.00498344 -12 24 C-12.86625 23.896875 -13.7325 23.79375 -14.625 23.6875 C-18.1962391 24.01817029 -18.65440627 24.28098233 -21.125 26.5625 C-22.07375 27.366875 -23.0225 28.17125 -24 29 C-25.32 28.67 -26.64 28.34 -28 28 C-18.76 18.76 -9.52 9.52 0 0 Z " fill="#5C71F1" transform="translate(268,664)"/>
<path d="M0 0 C0.99 0.33 1.98 0.66 3 1 C-4.59 8.59 -12.18 16.18 -20 24 C-22 20 -22 20 -21.1875 17.4375 C-20.795625 16.633125 -20.40375 15.82875 -20 15 C-19.67 14.01 -19.34 13.02 -19 12 C-17.88625 12.1546875 -17.88625 12.1546875 -16.75 12.3125 C-13.78737059 12.26989682 -13.78737059 12.26989682 -11.75 9.6875 C-9.88143125 7.06541503 -9.88143125 7.06541503 -9 4 C-5.535 3.505 -5.535 3.505 -2 3 C-2 2.34 -2 1.68 -2 1 C-1.34 0.67 -0.68 0.34 0 0 Z " fill="#060922" transform="translate(277,652)"/>
<path d="M0 0 C0.75 2.125 0.75 2.125 1 5 C-1.3335285 9.30805261 -4.19978306 12.90680016 -8 16 C-11.8125 16.8125 -11.8125 16.8125 -15 17 C-15 17.66 -15 18.32 -15 19 C-16.32 18.34 -17.64 17.68 -19 17 C-14.33333333 12.33333333 -9.66666667 7.66666667 -5 3 C-4.443125 2.401875 -3.88625 1.80375 -3.3125 1.1875 C-2 0 -2 0 0 0 Z " fill="#070926" transform="translate(495,624)"/>
<path d="M0 0 C0 0.99 0 1.98 0 3 C-1.32 3 -2.64 3 -4 3 C-4 3.66 -4 4.32 -4 5 C-7.4019487 7.09350689 -10.05272412 7.17942163 -14 7 C-14.33 7.99 -14.66 8.98 -15 10 C-16.84765625 10.73046875 -16.84765625 10.73046875 -19.0625 11.1875 C-19.79597656 11.34605469 -20.52945312 11.50460937 -21.28515625 11.66796875 C-21.85105469 11.77753906 -22.41695313 11.88710938 -23 12 C-23 12.66 -23 13.32 -23 14 C-23.83144531 14.39832031 -24.66289062 14.79664063 -25.51953125 15.20703125 C-26.60621094 15.73683594 -27.69289063 16.26664063 -28.8125 16.8125 C-29.89144531 17.33457031 -30.97039062 17.85664062 -32.08203125 18.39453125 C-34.6007336 19.78032331 -36.03939316 20.99037798 -38 23 C-40.1875 22.6875 -40.1875 22.6875 -42 22 C-32.43563399 13.25543679 -13.4756838 0 0 0 Z " fill="#5662C6" transform="translate(348,606)"/>
<path d="M0 0 C0.99 0 1.98 0 3 0 C0.73824377 7.46379556 -5.14053666 12.26256155 -11 17 C-13.45012887 19.39179247 -15.8346934 21.82524731 -18.1875 24.3125 C-20 26 -20 26 -22 26 C-22.28875 26.639375 -22.5775 27.27875 -22.875 27.9375 C-24 30 -24 30 -26 31 C-25.37064741 28.06302123 -24.67498244 25.51247366 -23 23 C-22.175 22.71125 -21.35 22.4225 -20.5 22.125 C-19.2625 21.568125 -19.2625 21.568125 -18 21 C-17.67 20.01 -17.34 19.02 -17 18 C-16.67 17.01 -16.34 16.02 -16 15 C-13.5 13.8125 -13.5 13.8125 -11 13 C-10.34 12.01 -9.68 11.02 -9 10 C-8.34 10 -7.68 10 -7 10 C-7 9.01 -7 8.02 -7 7 C-6.34 7 -5.68 7 -5 7 C-4.67 6.34 -4.34 5.68 -4 5 C-3.34 5.33 -2.68 5.66 -2 6 C-1.855625 5.195625 -1.71125 4.39125 -1.5625 3.5625 C-1 1 -1 1 0 0 Z " fill="#5B6ED3" transform="translate(508,604)"/>
<path d="M0 0 C1.65 0 3.3 0 5 0 C6.41003254 4.23009761 5.92684454 8.08688004 5.6875 12.5 C5.65205078 13.36753906 5.61660156 14.23507812 5.58007812 15.12890625 C5.53689453 15.96292969 5.49371094 16.79695313 5.44921875 17.65625 C5.41143311 18.41744141 5.37364746 19.17863281 5.3347168 19.96289062 C5 22 5 22 3 25 C-0.625 26.1875 -0.625 26.1875 -4 27 C-4.33 26.67 -4.66 26.34 -5 26 C-7.18019479 25.60333773 -9.3696463 25.25684763 -11.5625 24.9375 C-13.35880859 24.67259766 -13.35880859 24.67259766 -15.19140625 24.40234375 C-16.11824219 24.26957031 -17.04507813 24.13679688 -18 24 C-18 23.34 -18 22.68 -18 22 C-17.42967041 21.97494385 -16.85934082 21.9498877 -16.27172852 21.92407227 C-13.70173843 21.80843451 -11.13214473 21.68556376 -8.5625 21.5625 C-7.21575195 21.50352539 -7.21575195 21.50352539 -5.84179688 21.44335938 C-4.98779297 21.40146484 -4.13378906 21.35957031 -3.25390625 21.31640625 C-2.06776733 21.26141968 -2.06776733 21.26141968 -0.85766602 21.20532227 C1.01401441 21.19436743 1.01401441 21.19436743 2 20 C2.08651611 18.58429877 2.10704904 17.164405 2.09765625 15.74609375 C2.09282227 14.46508789 2.09282227 14.46508789 2.08789062 13.15820312 C2.07951172 12.26037109 2.07113281 11.36253906 2.0625 10.4375 C2.05798828 9.53580078 2.05347656 8.63410156 2.04882812 7.70507812 C2.03700225 5.46998686 2.0205222 3.23502563 2 1 C1.34 0.67 0.68 0.34 0 0 Z " fill="#11163D" transform="translate(548,402)"/>
<path d="M0 0 C0.33 0.99 0.66 1.98 1 3 C0.525625 3.78375 0.05125 4.5675 -0.4375 5.375 C-2.24351256 7.85889116 -2.24351256 7.85889116 -1.875 10.5625 C-2 13 -2 13 -4.375 15.3125 C-7 17 -7 17 -9 17 C-9 17.66 -9 18.32 -9 19 C-11.64 19 -14.28 19 -17 19 C-15.51316502 16.18283899 -14.28266742 14.21985244 -11.75 12.25 C-8.4084972 9.51604317 -6.10500335 6.38615753 -3.55078125 2.92578125 C-2 1 -2 1 0 0 Z " fill="#050418" transform="translate(512,605)"/>
<path d="M0 0 C2.66242852 0.64488784 5.27759629 1.36956657 7.890625 2.19140625 C8.59960938 2.41376953 9.30859375 2.63613281 10.0390625 2.86523438 C10.76867187 3.09533203 11.49828125 3.32542969 12.25 3.5625 C13.36761719 3.91344727 13.36761719 3.91344727 14.5078125 4.27148438 C16.33886649 4.84662313 18.1694773 5.4231725 20 6 C20 6.33 20 6.66 20 7 C16.04 6.67 12.08 6.34 8 6 C8 5.34 8 4.68 8 4 C7.01 4.495 7.01 4.495 6 5 C5.87823484 9.67151997 5.87823484 9.67151997 6.5 14.28125 C7.12217618 17.66433295 7.09462669 20.87494447 7.0625 24.3125 C7.05347656 25.56675781 7.04445313 26.82101562 7.03515625 28.11328125 C7.01775391 29.54220703 7.01775391 29.54220703 7 31 C6.67 31 6.34 31 6 31 C5.81824219 29.81664062 5.63648438 28.63328125 5.44921875 27.4140625 C3.66258457 15.97993131 3.66258457 15.97993131 0.55078125 4.84765625 C0 3 0 3 0 0 Z " fill="#050831" transform="translate(311,473)"/>
<path d="M0 0 C-1.39583333 1.39583333 -2.79166667 2.79166667 -4.1875 4.1875 C-5.01121094 5.0125 -5.83492188 5.8375 -6.68359375 6.6875 C-8.36277987 8.36385444 -10.05305649 10.02912339 -11.75 11.6875 C-14.12004228 14.04681253 -14.12004228 14.04681253 -16.4375 17.0625 C-19.14580161 20.16713843 -21.50960843 21.88953068 -25 24 C-24.8125 21.125 -24.8125 21.125 -24 18 C-21.4375 16.625 -21.4375 16.625 -19 16 C-19 15.34 -19 14.68 -19 14 C-17.35 13.34 -15.7 12.68 -14 12 C-14.33 10.68 -14.66 9.36 -15 8 C-14.21625 7.79375 -13.4325 7.5875 -12.625 7.375 C-9.69083714 6.19323388 -9.69083714 6.19323388 -8.6875 2.875 C-8.460625 1.92625 -8.23375 0.9775 -8 0 C-4.71303767 -0.79953138 -3.28976808 -1.09658936 0 0 Z " fill="#5B6BD3" transform="translate(482,636)"/>
<path d="M0 0 C21.03004153 -0.12054257 41.98699294 0.04266441 63 1 C63 1.33 63 1.66 63 2 C51.54625089 2.54833329 40.09385874 3.09636961 28.625 3.125 C27.87750488 3.12951172 27.13000977 3.13402344 26.35986328 3.13867188 C21.24841786 3.12420893 21.24841786 3.12420893 19 2 C17.55151418 1.91657841 16.09929131 1.89267139 14.6484375 1.90234375 C13.37226563 1.90717773 13.37226563 1.90717773 12.0703125 1.91210938 C11.18085938 1.92048828 10.29140625 1.92886719 9.375 1.9375 C8.02921875 1.94426758 8.02921875 1.94426758 6.65625 1.95117188 C4.43743352 1.96297409 2.21874982 1.97943845 0 2 C0 1.34 0 0.68 0 0 Z " fill="#02021D" transform="translate(257,701)"/>
<path d="M0 0 C0.8850119 0.00141495 1.7700238 0.0028299 2.68185425 0.00428772 C5.51449941 0.00989485 8.34706614 0.02244854 11.1796875 0.03515625 C13.09765511 0.04017033 15.01562396 0.0447334 16.93359375 0.04882812 C21.64065532 0.05986659 26.3476581 0.077136 31.0546875 0.09765625 C31.0546875 0.42765625 31.0546875 0.75765625 31.0546875 1.09765625 C15.2146875 1.59265625 15.2146875 1.59265625 -0.9453125 2.09765625 C-0.9453125 2.42765625 -0.9453125 2.75765625 -0.9453125 3.09765625 C-1.6158667 3.14776855 -2.2864209 3.19788086 -2.97729492 3.24951172 C-6.02982792 3.4823119 -9.08125927 3.72736043 -12.1328125 3.97265625 C-13.18791016 4.05128906 -14.24300781 4.12992188 -15.33007812 4.2109375 C-16.35166016 4.29472656 -17.37324219 4.37851562 -18.42578125 4.46484375 C-19.36317139 4.53815918 -20.30056152 4.61147461 -21.26635742 4.68701172 C-24.06865696 5.11656315 -26.33091722 6.03235748 -28.9453125 7.09765625 C-31.2578125 6.72265625 -31.2578125 6.72265625 -32.9453125 6.09765625 C-26.68464272 3.34296155 -20.70191782 2.35488645 -13.921875 1.52734375 C-3.20885744 -0.01915485 -3.20885744 -0.01915485 0 0 Z " fill="#5662C2" transform="translate(384.9453125,597.90234375)"/>
<path d="M0 0 C2.64 0 5.28 0 8 0 C3.32533663 5.62303757 -1.67765667 10.79741554 -6.875 15.9375 C-7.65875 16.71673828 -8.4425 17.49597656 -9.25 18.29882812 C-11.16438581 20.20154085 -13.08108034 22.10186171 -15 24 C-15.33 23.01 -15.66 22.02 -16 21 C-15.01 20.67 -14.02 20.34 -13 20 C-11.93283296 18.20067421 -11.93283296 18.20067421 -11 16 C-9.5625 13.25 -9.5625 13.25 -8 11 C-7.01 11 -6.02 11 -5 11 C-5 10.34 -5 9.68 -5 9 C-4.34 9 -3.68 9 -3 9 C-3 8.34 -3 7.68 -3 7 C-2.01 6.34 -1.02 5.68 0 5 C0.25030977 2.41619823 0.25030977 2.41619823 0 0 Z " fill="#050B2E" transform="translate(256,448)"/>
<path d="M0 0 C1.65 0.33 3.3 0.66 5 1 C4.61328125 1.44730469 4.2265625 1.89460937 3.828125 2.35546875 C3.30734375 2.96003906 2.7865625 3.56460938 2.25 4.1875 C1.69699219 4.82945312 1.14398438 5.47140625 0.57421875 6.1328125 C-0.64034272 7.57340898 -1.80108048 9.05949353 -2.9375 10.5625 C-5.62698066 13.74097714 -8.61025014 16.57040097 -12 19 C-12.66 19 -13.32 19 -14 19 C-13.731875 18.505 -13.46375 18.01 -13.1875 17.5 C-11.96426785 15.14165757 -11.96426785 15.14165757 -11.515625 13.0234375 C-10.89669486 10.72335929 -10.33536228 8.98122377 -9 7 C-6.05362678 5.71030638 -3.19164355 5.26764307 0 5 C0 3.35 0 1.7 0 0 Z " fill="#5B6ED9" transform="translate(452,659)"/>
<path d="M0 0 C2.64 0 5.28 0 8 0 C8 4.95 8 9.9 8 15 C6.35 15 4.7 15 3 15 C3 14.34 3 13.68 3 13 C2.34 12.67 1.68 12.34 1 12 C1.99 12 2.98 12 4 12 C3.67558396 10.33157466 3.34060811 8.66519519 3 7 C2.855625 6.2575 2.71125 5.515 2.5625 4.75 C2.376875 4.1725 2.19125 3.595 2 3 C1.34 2.67 0.68 2.34 0 2 C0 1.34 0 0.68 0 0 Z " fill="#05042A" transform="translate(540,406)"/>
<path d="M0 0 C5.94 0 11.88 0 18 0 C19.64176774 3.28353549 19.18454039 6.89519638 19.1875 10.5 C19.19974609 11.28503906 19.21199219 12.07007813 19.22460938 12.87890625 C19.22986254 14.92063726 19.1222018 16.96192251 19 19 C17 21 17 21 15.12060547 21.22705078 C14.37697754 21.21657715 13.63334961 21.20610352 12.8671875 21.1953125 C12.06152344 21.18886719 11.25585938 21.18242187 10.42578125 21.17578125 C9.58402344 21.15902344 8.74226562 21.14226562 7.875 21.125 C6.60076172 21.11146484 6.60076172 21.11146484 5.30078125 21.09765625 C3.20040116 21.07405647 1.10016556 21.03818483 -1 21 C-1 20.67 -1 20.34 -1 20 C0.14339844 19.93941406 1.28679688 19.87882812 2.46484375 19.81640625 C3.95574305 19.73201572 5.44662775 19.64736698 6.9375 19.5625 C7.69224609 19.52318359 8.44699219 19.48386719 9.22460938 19.44335938 C12.91944187 19.55961976 12.91944187 19.55961976 16 18 C16.07325436 15.3013095 16.09222351 12.63497444 16.0625 9.9375 C16.0315625 6.0084375 16.0315625 6.0084375 16 2 C10.72 1.67 5.44 1.34 0 1 C0 0.67 0 0.34 0 0 Z " fill="#7076C4" transform="translate(532,403)"/>
<path d="M0 0 C0 1.32 0 2.64 0 4 C1.65 4 3.3 4 5 4 C5 4.33 5 4.66 5 5 C1.7 5 -1.6 5 -5 5 C3.25 5.33 11.5 5.66 20 6 C20 6.33 20 6.66 20 7 C10.1 7 0.2 7 -10 7 C-10 4 -10 4 -7.8125 1.8125 C-4.80799236 -0.12373826 -3.4826218 -0.39801392 0 0 Z " fill="#5260BE" transform="translate(244,693)"/>
<path d="M0 0 C0.66 0.33 1.32 0.66 2 1 C0.38287572 3.33916131 -1.24305362 5.67121701 -2.875 8 C-3.33519531 8.66773438 -3.79539062 9.33546875 -4.26953125 10.0234375 C-5.46305946 11.71859351 -6.72690339 13.3637578 -8 15 C-8.66 15 -9.32 15 -10 15 C-10.2475 15.5775 -10.495 16.155 -10.75 16.75 C-12.18299988 19.32939979 -13.78424676 21.06121592 -16 23 C-16.66 23 -17.32 23 -18 23 C-17.67 20.69 -17.34 18.38 -17 16 C-16.34 16 -15.68 16 -15 16 C-15 16.66 -15 17.32 -15 18 C-14.34 18 -13.68 18 -13 18 C-12.34 16.35 -11.68 14.7 -11 13 C-10.34 13 -9.68 13 -9 13 C-8.938125 12.21625 -8.87625 11.4325 -8.8125 10.625 C-8.544375 9.75875 -8.27625 8.8925 -8 8 C-6.34795544 7.29788106 -4.68076231 6.63028587 -3 6 C-2.11306697 3.95894361 -2.11306697 3.95894361 -2 2 C-1.34 2 -0.68 2 0 2 C0 1.34 0 0.68 0 0 Z " fill="#606CD9" transform="translate(290,601)"/>
<path d="M0 0 C0.33 0 0.66 0 1 0 C1.62899172 10.11045957 0.34827874 20.29593852 -5 29 C-5 29.99 -5 30.98 -5 32 C-6.32 32 -7.64 32 -9 32 C-8.19429304 28.50577615 -7.08208283 25.14682647 -5.9375 21.75 C-5.57527344 20.67234375 -5.21304687 19.5946875 -4.83984375 18.484375 C-4.56269531 17.66453125 -4.28554688 16.8446875 -4 16 C-3.34 16 -2.68 16 -2 16 C-1.34 10.72 -0.68 5.44 0 0 Z " fill="#050931" transform="translate(315,544)"/>
<path d="M0 0 C0.66 0.66 1.32 1.32 2 2 C0.77619774 6.70693178 -0.77905982 10.65065881 -3 15 C-3.27585937 15.89847656 -3.55171875 16.79695312 -3.8359375 17.72265625 C-5.20206326 21.56889623 -7.05551971 24.87224007 -9.125 28.375 C-9.49753906 29.01566406 -9.87007813 29.65632812 -10.25390625 30.31640625 C-11.16434002 31.88048477 -12.08148191 33.44065534 -13 35 C-13.66796875 33.28515625 -13.66796875 33.28515625 -14 31 C-12.92578125 28.80859375 -12.92578125 28.80859375 -11.3125 26.4375 C-8.4458276 21.95168855 -6.59185995 17.59675426 -4.95703125 12.54296875 C-3.92392152 9.79784861 -2.52055349 7.50101967 -1 5 C-0.29329272 2.30745009 -0.29329272 2.30745009 0 0 Z " fill="#5F6FD1" transform="translate(308,563)"/>
<path d="M0 0 C2.875 -0.125 2.875 -0.125 6 0 C8 2 8 2 8.1953125 3.9453125 C8.13020833 5.96354167 8.06510417 7.98177083 8 10 C7.01 10 6.02 10 5 10 C5 9.01 5 8.02 5 7 C4.34 7 3.68 7 3 7 C3 7.99 3 8.98 3 10 C2.01 10 1.02 10 0 10 C0 6.7 0 3.4 0 0 Z " fill="#4F5699" transform="translate(536,408)"/>
<path d="M0 0 C0.99 0.33 1.98 0.66 3 1 C-1.98404168 7.03331362 -7.41915303 12.5184171 -13 18 C-13.33 16.68 -13.66 15.36 -14 14 C-13.34 14 -12.68 14 -12 14 C-11.9175 13.236875 -11.835 12.47375 -11.75 11.6875 C-10.8241562 8.36989304 -9.89412739 7.7686334 -7 6 C-6.13375 5.443125 -5.2675 4.88625 -4.375 4.3125 C-2 3 -2 3 0 3 C0 2.01 0 1.02 0 0 Z " fill="#030924" transform="translate(227,481)"/>
<path d="M0 0 C0 0.66 0 1.32 0 2 C-1.28913487 2.67154933 -2.58140204 3.33708859 -3.875 4 C-4.59429687 4.37125 -5.31359375 4.7425 -6.0546875 5.125 C-8 6 -8 6 -10 6 C-10 5.34 -10 4.68 -10 4 C-10.64324219 4.31710937 -11.28648437 4.63421875 -11.94921875 4.9609375 C-15.92305679 6.31438298 -19.64201079 6.45720161 -23.8125 6.625 C-24.60076172 6.66367187 -25.38902344 6.70234375 -26.20117188 6.7421875 C-28.1337538 6.83588844 -30.06684376 6.91900779 -32 7 C-28.18272474 4.6633038 -24.03040619 4.18315378 -19.6875 3.5 C-15.43872359 2.82109104 -11.34853209 2.10050359 -7.20703125 0.90625 C-4 0 -4 0 0 0 Z " fill="#080A34" transform="translate(432,477)"/>
<path d="M0 0 C0.33 0.99 0.66 1.98 1 3 C1.66 3.33 2.32 3.66 3 4 C1.71283353 5.00578589 0.42011342 6.00446798 -0.875 7 C-1.59429687 7.556875 -2.31359375 8.11375 -3.0546875 8.6875 C-5 10 -5 10 -7 10 C-7 10.66 -7 11.32 -7 12 C-7.66 12 -8.32 12 -9 12 C-9 12.99 -9 13.98 -9 15 C-10.98 15.33 -12.96 15.66 -15 16 C-10.30233025 10.33870569 -5.25276628 5.14771096 0 0 Z " fill="#5D6CD4" transform="translate(307,405)"/>
<path d="M0 0 C0.33 0.66 0.66 1.32 1 2 C2.65 1.67 4.3 1.34 6 1 C6.33 1.66 6.66 2.32 7 3 C6.50371094 3.42410156 6.00742187 3.84820313 5.49609375 4.28515625 C1.26468329 7.93846129 -2.77033983 11.69135449 -6.65234375 15.71484375 C-8 17 -8 17 -9 17 C-9 15.02 -9 13.04 -9 11 C-6.35261084 9.5393715 -5.10551666 9 -2 9 C-2.33 7.68 -2.66 6.36 -3 5 C-1.68 4.67 -0.36 4.34 1 4 C0.67 2.68 0.34 1.36 0 0 Z " fill="#070C2A" transform="translate(289,635)"/>
<path d="M0 0 C1.98 0 3.96 0 6 0 C5.07038578 1.15224028 4.1309875 2.29659176 3.1875 3.4375 C2.40439453 4.39462891 2.40439453 4.39462891 1.60546875 5.37109375 C0 7 0 7 -3 8 C-3.309375 8.61875 -3.61875 9.2375 -3.9375 9.875 C-5.20298687 12.40597375 -6.67272837 13.44848558 -9 15 C-10 14 -10 14 -10.0625 11.4375 C-10.041875 10.633125 -10.02125 9.82875 -10 9 C-8.71086513 8.32845067 -7.41859796 7.66291141 -6.125 7 C-5.40570313 6.62875 -4.68640625 6.2575 -3.9453125 5.875 C-2 5 -2 5 0 5 C0 3.35 0 1.7 0 0 Z " fill="#5F70DC" transform="translate(251,640)"/>
<path d="M0 0 C5.61 0 11.22 0 17 0 C17 5.28 17 10.56 17 16 C16.67 16 16.34 16 16 16 C16 11.05 16 6.1 16 1 C13.36 1 10.72 1 8 1 C8 1.66 8 2.32 8 3 C6.68 3 5.36 3 4 3 C4 5.97 4 8.94 4 12 C3.67 12 3.34 12 3 12 C3 9.03 3 6.06 3 3 C2.01 3 1.02 3 0 3 C0 2.01 0 1.02 0 0 Z " fill="#0E1249" transform="translate(532,405)"/>
<path d="M0 0 C-0.86126652 4.86071106 -2.22528154 9.56668547 -3.5625 14.3125 C-3.79646484 15.14845703 -4.03042969 15.98441406 -4.27148438 16.84570312 C-4.84601434 18.89759586 -5.42278439 20.94886114 -6 23 C-6.33 23 -6.66 23 -7 23 C-7.05399736 21.54207116 -7.09279177 20.08357288 -7.125 18.625 C-7.14820313 17.81289063 -7.17140625 17.00078125 -7.1953125 16.1640625 C-7 14 -7 14 -5 12 C-4.54188325 10.02764667 -4.54188325 10.02764667 -4.375 7.875 C-4.189375 5.956875 -4.189375 5.956875 -4 4 C-5.98 4 -7.96 4 -10 4 C-7.25346796 1.25346796 -3.91404908 0 0 0 Z " fill="#0E164E" transform="translate(442,473)"/>
<path d="M0 0 C0.99 0.33 1.98 0.66 3 1 C-1.62 5.62 -6.24 10.24 -11 15 C-11.33 13.68 -11.66 12.36 -12 11 C-11.34 10.34 -10.68 9.68 -10 9 C-9.01 9 -8.02 9 -7 9 C-7 6.69 -7 4.38 -7 2 C-6.030625 1.855625 -5.06125 1.71125 -4.0625 1.5625 C-1.13513227 1.32437659 -1.13513227 1.32437659 0 0 Z " fill="#070B31" transform="translate(247,682)"/>
<path d="M0 0 C0.33 0.66 0.66 1.32 1 2 C1.99 2.33 2.98 2.66 4 3 C2.35 3 0.7 3 -1 3 C-1.2475 3.556875 -1.495 4.11375 -1.75 4.6875 C-3.23870529 7.44160479 -4.88409972 9.69174514 -7 12 C-7.99 12 -8.98 12 -10 12 C-10.226875 12.804375 -10.45375 13.60875 -10.6875 14.4375 C-11.3371875 15.7059375 -11.3371875 15.7059375 -12 17 C-14.625 17.8125 -14.625 17.8125 -17 18 C-13.50894415 13.67774038 -9.89783654 9.9559206 -5.61328125 6.421875 C-3.43783569 4.50453315 -1.71366371 2.33058264 0 0 Z " fill="#090E3C" transform="translate(475,642)"/>
<path d="M0 0 C0.33 0 0.66 0 1 0 C1.04966189 4.44741318 1.08584293 8.8946768 1.10986328 13.34228516 C1.11988339 14.85338149 1.13350321 16.36445862 1.15087891 17.87548828 C1.17530392 20.05506142 1.18652307 22.23437684 1.1953125 24.4140625 C1.20578613 25.7232666 1.21625977 27.0324707 1.22705078 28.38134766 C1.00366763 31.9415466 0.2935223 34.69234262 -1 38 C-1.33 38 -1.66 38 -2 38 C-1.90912109 36.77603516 -1.90912109 36.77603516 -1.81640625 35.52734375 C-0.97950076 23.69478768 -0.48037169 11.85174277 0 0 Z " fill="#000232" transform="translate(318,505)"/>
<path d="M0 0 C1.26187857 3.7856357 1.01657797 7.23682449 0.87890625 11.16796875 C0.85529526 11.96278152 0.83168427 12.7575943 0.80735779 13.57649231 C0.73081899 16.11368099 0.64675272 18.6505569 0.5625 21.1875 C0.50926951 22.90818785 0.45652917 24.62889094 0.40429688 26.34960938 C0.27521711 30.56660411 0.13938609 34.78333385 0 39 C-0.33 39 -0.66 39 -1 39 C-1.03758423 37.97229492 -1.03758423 37.97229492 -1.07592773 36.92382812 C-1.19285607 33.7824065 -1.31513874 30.64121452 -1.4375 27.5 C-1.47681641 26.42234375 -1.51613281 25.3446875 -1.55664062 24.234375 C-1.74008343 19.60597196 -1.93671446 15.05235964 -2.625 10.46875 C-3.12479353 5.84565988 -2.09303248 4.01862236 0 0 Z " fill="#010419" transform="translate(212,496)"/>
<path d="M0 0 C-0.33 0.99 -0.66 1.98 -1 3 C-1.99 3 -2.98 3 -4 3 C-6.35407028 5.17751501 -8.50979793 7.41175752 -10.5625 9.875 C-11.2740625 10.431875 -11.2740625 10.431875 -12 11 C-14.1875 10.6875 -14.1875 10.6875 -16 10 C-12.76320069 5.68426759 -6.14428986 -3.07214493 0 0 Z " fill="#090E2D" transform="translate(244,659)"/>
<path d="M0 0 C0.66 0.99 1.32 1.98 2 3 C1.29875 3.350625 0.5975 3.70125 -0.125 4.0625 C-2.69605847 5.79516984 -4.08041932 7.14776772 -6 9.5 C-8.37941381 12.39454463 -10.5117112 14.44964942 -14 16 C-14.66 15.67 -15.32 15.34 -16 15 C-14.54782324 13.49403892 -13.08807139 11.99537896 -11.625 10.5 C-10.81289063 9.6646875 -10.00078125 8.829375 -9.1640625 7.96875 C-7 6 -7 6 -5 6 C-4.67 5.01 -4.34 4.02 -4 3 C-1.9375 1.3125 -1.9375 1.3125 0 0 Z " fill="#5967C9" transform="translate(301,632)"/>
<path d="M0 0 C2.14762184 3.22143276 2.561068 4.2595467 2 8 C-0.04424538 9.97610386 -1.1176825 11 -4 11 C-4.66 12.65 -5.32 14.3 -6 16 C-6.66 16 -7.32 16 -8 16 C-6.42986223 10.03347646 -3.24970218 5.17090975 0 0 Z " fill="#090D31" transform="translate(302,584)"/>
<path d="M0 0 C5.37515933 -0.02467759 10.75028585 -0.04284928 16.12548828 -0.05493164 C17.95492121 -0.05996737 19.78435009 -0.06679627 21.61376953 -0.07543945 C24.23991898 -0.08753824 26.86601532 -0.09323583 29.4921875 -0.09765625 C30.31306854 -0.10281754 31.13394958 -0.10797882 31.97970581 -0.11329651 C37.77225659 -0.11387171 37.77225659 -0.11387171 40 1 C40 1.66 40 2.32 40 3 C38.26073242 2.76228882 38.26073242 2.76228882 36.48632812 2.51977539 C32.39536943 2.00975378 28.34162667 1.79996527 24.21875 1.68359375 C23.51979614 1.66281265 22.82084229 1.64203156 22.10070801 1.62062073 C19.90055741 1.55601465 17.70030304 1.49666091 15.5 1.4375 C13.99478158 1.39422983 12.48957307 1.35061307 10.984375 1.30664062 C7.32302256 1.20042681 3.66155766 1.09891804 0 1 C0 0.67 0 0.34 0 0 Z " fill="#182057" transform="translate(384,597)"/>
<path d="M0 0 C0.33 1.32 0.66 2.64 1 4 C0.01 4.33 -0.98 4.66 -2 5 C-3.01187895 6.65948148 -4.0126546 8.32580562 -5 10 C-5.66 10 -6.32 10 -7 10 C-7 10.66 -7 11.32 -7 12 C-7.99 12 -8.98 12 -10 12 C-10.33 13.32 -10.66 14.64 -11 16 C-12.32 15.67 -13.64 15.34 -15 15 C-10.05 10.05 -5.1 5.1 0 0 Z " fill="#5968C5" transform="translate(291,421)"/>
<path d="M0 0 C0.33 1.32 0.66 2.64 1 4 C0.01 4.33 -0.98 4.66 -2 5 C-2.12375 5.598125 -2.2475 6.19625 -2.375 6.8125 C-3.3148946 10.10213111 -5.16647935 11.22081262 -8 13 C-9.32 12.67 -10.64 12.34 -12 12 C-8.04 8.04 -4.08 4.08 0 0 Z " fill="#5C69CD" transform="translate(252,680)"/>
<path d="M0 0 C2.42130331 2.42130331 2.52840504 3.80111377 3.125 7.125 C3.29257812 8.03507813 3.46015625 8.94515625 3.6328125 9.8828125 C3.81457031 10.93082031 3.81457031 10.93082031 4 12 C-1.41798672 11.30834212 -6.6822785 10.24200752 -12 9 C-12 8.67 -12 8.34 -12 8 C-7.71 8 -3.42 8 1 8 C0.67 5.36 0.34 2.72 0 0 Z " fill="#151D58" transform="translate(438,592)"/>
<path d="M0 0 C0.33 0.99 0.66 1.98 1 3 C0.01 3.33 -0.98 3.66 -2 4 C-2.33 4.99 -2.66 5.98 -3 7 C-3.66 7 -4.32 7 -5 7 C-5.20625 7.7425 -5.4125 8.485 -5.625 9.25 C-7.39615589 12.79231177 -9.63427951 14.02446841 -13 16 C-13.66 15.67 -14.32 15.34 -15 15 C-14.278125 14.29875 -13.55625 13.5975 -12.8125 12.875 C-10.88855154 10.96189068 -9.22859879 9.05503352 -7.5 6.9375 C-5.17993421 4.2114227 -2.86417237 2.1276709 0 0 Z " fill="#101640" transform="translate(253,644)"/>
<path d="M0 0 C0.33 0.66 0.66 1.32 1 2 C0.67 2.99 0.34 3.98 0 5 C-0.66 5 -1.32 5 -2 5 C-2 6.98 -2 8.96 -2 11 C-4.97 11.66 -7.94 12.32 -11 13 C-11 12.34 -11 11.68 -11 11 C-9.50390625 9.5625 -9.50390625 9.5625 -7.5625 8 C-4.84811762 5.85474956 -4.84811762 5.85474956 -3 3 C-2.34 3 -1.68 3 -1 3 C-0.67 2.01 -0.34 1.02 0 0 Z " fill="#0D1237" transform="translate(283,613)"/>
<path d="M0 0 C-2.92078395 2.92078395 -6.37909659 2.9414363 -10.3125 3.5625 C-11.82949328 3.8134022 -13.34642207 4.06469461 -14.86328125 4.31640625 C-15.57693848 4.43258301 -16.2905957 4.54875977 -17.02587891 4.66845703 C-19.36172215 5.06074928 -21.68189318 5.51416923 -24 6 C-24 5.34 -24 4.68 -24 4 C-22.02 3.67 -20.04 3.34 -18 3 C-18 2.34 -18 1.68 -18 1 C-11.96445452 0.30739642 -6.07593562 -0.11251733 0 0 Z " fill="#070B39" transform="translate(376,598)"/>
<path d="M0 0 C1.32 0.33 2.64 0.66 4 1 C3.67 3.31 3.34 5.62 3 8 C2.360625 8.12375 1.72125 8.2475 1.0625 8.375 C0.381875 8.58125 -0.29875 8.7875 -1 9 C-1.33 9.66 -1.66 10.32 -2 11 C-2.33 8.36 -2.66 5.72 -3 3 C-2.34 3 -1.68 3 -1 3 C-0.67 2.01 -0.34 1.02 0 0 Z " fill="#5971ED" transform="translate(291,592)"/>
<path d="M0 0 C0.73046875 1.73046875 0.73046875 1.73046875 1 4 C-0.51171875 6.17578125 -0.51171875 6.17578125 -2.6875 8.3125 C-3.39261719 9.03050781 -4.09773438 9.74851562 -4.82421875 10.48828125 C-7 12 -7 12 -9.26953125 11.73046875 C-10.12611328 11.36888672 -10.12611328 11.36888672 -11 11 C-7.81316569 6.66590534 -4.13621084 3.3810038 0 0 Z " fill="#0C1337" transform="translate(271,626)"/>
<path d="M0 0 C0 0.99 0 1.98 0 3 C-1.32 3 -2.64 3 -4 3 C-4 3.66 -4 4.32 -4 5 C-7.06246747 6.78409802 -9.22079273 7.22880021 -12.75 7.125 C-13.54921875 7.10695313 -14.3484375 7.08890625 -15.171875 7.0703125 C-15.77515625 7.04710937 -16.3784375 7.02390625 -17 7 C-14.03171001 5.02114001 -11.22552946 3.74135003 -7.9375 2.375 C-6.87402344 1.92898438 -5.81054688 1.48296875 -4.71484375 1.0234375 C-2 0 -2 0 0 0 Z " fill="#5D6AD1" transform="translate(348,606)"/>
<path d="M0 0 C1 2 1 2 0.25 4.875 C-0.91907837 7.79769593 -1.78379174 9.78379174 -4 12 C-6.6875 12.75 -6.6875 12.75 -9 13 C-7.50923566 9.7173068 -5.61379679 7.06922559 -3.375 4.25 C-2.74335938 3.45078125 -2.11171875 2.6515625 -1.4609375 1.828125 C-0.97882813 1.22484375 -0.49671875 0.6215625 0 0 Z " fill="#0F1341" transform="translate(293,600)"/>
<path d="M0 0 C0.99 0.33 1.98 0.66 3 1 C-1.52896699 6.22573114 -5.31879351 8.30742769 -12 10 C-11.4375 7.625 -11.4375 7.625 -10 5 C-6.5625 3.875 -6.5625 3.875 -3 3 C-1.09829946 1.52238341 -1.09829946 1.52238341 0 0 Z " fill="#5F70E5" transform="translate(314,624)"/>
<path d="M0 0 C2.23689267 3.355339 3.16735541 6.59630574 4.1875 10.4375 C4.47270508 11.44006836 4.47270508 11.44006836 4.76367188 12.46289062 C5.69706355 15.93813861 6.37080403 18.58608679 5 22 C4 21 4 21 3.9375 17.9375 C3.958125 16.968125 3.97875 15.99875 4 15 C3.34 15 2.68 15 2 15 C0.73694665 9.92523206 -0.27036084 5.27203646 0 0 Z " fill="#5967C5" transform="translate(310,473)"/>
<path d="M0 0 C7.05889737 0.70588974 14.01204964 1.78213386 21 3 C20.67 3.99 20.34 4.98 20 6 C13.04976736 5.35346673 6.61822697 3.13972752 0 1 C0 0.67 0 0.34 0 0 Z " fill="#5766C1" transform="translate(315,474)"/>
<path d="M0 0 C2.7115029 4.06725434 2.57867488 7.1547611 3 12 C-1.95 12 -6.9 12 -12 12 C-11.67 11.01 -11.34 10.02 -11 9 C-9.39125 9.2784375 -9.39125 9.2784375 -7.75 9.5625 C-3.92789678 10.23224429 -3.92789678 10.23224429 0 9 C0 6.03 0 3.06 0 0 Z " fill="#010523" transform="translate(436,588)"/>
<path d="M0 0 C0.66 0.33 1.32 0.66 2 1 C1.34 4.63 0.68 8.26 0 12 C-0.66 12 -1.32 12 -2 12 C-2.33 14.64 -2.66 17.28 -3 20 C-3.66 20 -4.32 20 -5 20 C-4.54915507 17.41515574 -4.08964737 14.8323671 -3.625 12.25 C-3.49867188 11.52039063 -3.37234375 10.79078125 -3.2421875 10.0390625 C-2.58165926 6.4061572 -1.92552338 3.1812995 0 0 Z " fill="#5B6ACF" transform="translate(441,476)"/>
<path d="M0 0 C-2.40183836 1.60122557 -4.15178154 2.53585561 -6.79296875 3.5078125 C-7.50517578 3.77207031 -8.21738281 4.03632812 -8.95117188 4.30859375 C-9.68916016 4.57800781 -10.42714844 4.84742188 -11.1875 5.125 C-11.93708984 5.40214844 -12.68667969 5.67929687 -13.45898438 5.96484375 C-15.30470959 6.64670402 -17.15218787 7.32381559 -19 8 C-19 7.34 -19 6.68 -19 6 C-18.34 6 -17.68 6 -17 6 C-17 5.34 -17 4.68 -17 4 C-15.6078125 3.8453125 -15.6078125 3.8453125 -14.1875 3.6875 C-11.01993474 3.33484968 -11.01993474 3.33484968 -9.625 1.4375 C-6.84530914 -1.0214573 -3.5850022 -0.17631158 0 0 Z " fill="#0E1649" transform="translate(352,604)"/>
<path d="M0 0 C-3.4636097 4.10669033 -7.86698091 4.44292816 -13 5 C-16.625 4.625 -16.625 4.625 -19 4 C-19 3.67 -19 3.34 -19 3 C-18.30132812 2.86722656 -17.60265625 2.73445312 -16.8828125 2.59765625 C-15.51769531 2.33275391 -15.51769531 2.33275391 -14.125 2.0625 C-13.22007812 1.88847656 -12.31515625 1.71445312 -11.3828125 1.53515625 C-4.20104895 -0.0777972 -4.20104895 -0.0777972 0 0 Z " fill="#5F71E6" transform="translate(368,602)"/>
<path d="M0 0 C2.51171875 1.546875 2.51171875 1.546875 5 4 C5.26953125 7.453125 5.26953125 7.453125 4.8125 11.25 C4.67457031 12.51328125 4.53664063 13.7765625 4.39453125 15.078125 C4.26433594 16.04234375 4.13414062 17.0065625 4 18 C3.67 18 3.34 18 3 18 C3 15.36 3 12.72 3 10 C2.34 10 1.68 10 1 10 C0.67 6.7 0.34 3.4 0 0 Z " fill="#576CD4" transform="translate(312,526)"/>
<path d="M0 0 C0.33 0.33 0.66 0.66 1 1 C2.34747084 1.23075082 3.70377565 1.41153063 5.0625 1.5625 C6.361875 1.706875 7.66125 1.85125 9 2 C9 2.33 9 2.66 9 3 C3.06 3.33 -2.88 3.66 -9 4 C-9 3.01 -9 2.02 -9 1 C-6.01787087 -0.49106457 -3.28390342 -0.11941467 0 0 Z " fill="#05082D" transform="translate(539,399)"/>
<path d="M0 0 C0 3 0 3 -1 6 C-1.66 6 -2.32 6 -3 6 C-3.66 7.65 -4.32 9.3 -5 11 C-8 11 -8 11 -10 10 C-6.7 6.7 -3.4 3.4 0 0 Z " fill="#5765C7" transform="translate(284,648)"/>
<path d="M0 0 C2.4429441 0.84205688 4.66283767 1.87816208 7 3 C7 3.33 7 3.66 7 4 C5.41632253 3.85795259 3.83306682 3.71119847 2.25 3.5625 C1.36828125 3.48128906 0.4865625 3.40007812 -0.421875 3.31640625 C-2.69350452 3.03761535 -4.79851823 2.61209423 -7 2 C-7 3.65 -7 5.3 -7 7 C-7.66 6.67 -8.32 6.34 -9 6 C-8.625 3.5625 -8.625 3.5625 -8 1 C-5.15697309 -0.42151345 -3.16974528 -0.23922606 0 0 Z " fill="#6074E6" transform="translate(317,471)"/>
<path d="M0 0 C1 2 1 2 0.5 4.375 C-1.67349918 8.17862356 -4.04480331 9.16365868 -8 11 C-8.66 10.67 -9.32 10.34 -10 10 C-6.7 6.7 -3.4 3.4 0 0 Z " fill="#5969C8" transform="translate(228,484)"/>
<path d="M0 0 C0.33 0 0.66 0 1 0 C1.1943287 4.85821752 0.65556789 8.4471883 -1 13 C-1 13.99 -1 14.98 -1 16 C-2.32 16 -3.64 16 -5 16 C-4.19429304 12.50577615 -3.08208283 9.14682647 -1.9375 5.75 C-1.57527344 4.67234375 -1.21304687 3.5946875 -0.83984375 2.484375 C-0.56269531 1.66453125 -0.28554688 0.8446875 0 0 Z " fill="#141C4F" transform="translate(311,560)"/>
<path d="M0 0 C1.99954746 -0.04254356 4.00041636 -0.04080783 6 0 C7 1 7 1 7.09765625 3.94140625 C7.08605469 5.13636719 7.07445312 6.33132813 7.0625 7.5625 C7.05347656 8.76003906 7.04445313 9.95757812 7.03515625 11.19140625 C7.02355469 12.11824219 7.01195312 13.04507812 7 14 C6.01 13.67 5.02 13.34 4 13 C4.66 13 5.32 13 6 13 C5.67 9.7 5.34 6.4 5 3 C3.35 2.67 1.7 2.34 0 2 C0 1.34 0 0.68 0 0 Z " fill="#02051D" transform="translate(540,406)"/>
<path d="M0 0 C0.66 0 1.32 0 2 0 C2.99 2.64 3.98 5.28 5 8 C4.34 8 3.68 8 3 8 C3.33 9.32 3.66 10.64 4 12 C3.34 12 2.68 12 2 12 C0.40861915 7.82262526 -0.21278058 4.46839215 0 0 Z " fill="#5D6FDB" transform="translate(440,592)"/>
<path d="M0 0 C0.5 2.1875 0.5 2.1875 0 5 C-2.43100182 7.10353811 -5.03640346 8.75029061 -8 10 C-8.66 9.67 -9.32 9.34 -10 9 C-8.52386015 7.49702124 -7.04400843 5.99768715 -5.5625 4.5 C-4.73878906 3.6646875 -3.91507812 2.829375 -3.06640625 1.96875 C-1 0 -1 0 0 0 Z " fill="#5969C8" transform="translate(276,437)"/>
<path d="M0 0 C0.66 0 1.32 0 2 0 C0.04383363 4.62366596 -2.96962437 8.79274963 -7.3125 11.375 C-7.869375 11.58125 -8.42625 11.7875 -9 12 C-9 11.01 -9 10.02 -9 9 C-8.01 8.67 -7.02 8.34 -6 8 C-5.67 7.34 -5.34 6.68 -5 6 C-5.66 5.67 -6.32 5.34 -7 5 C-5.824375 4.87625 -5.824375 4.87625 -4.625 4.75 C-1.85250896 4.27193661 -1.85250896 4.27193661 -0.6875 1.9375 C-0.460625 1.298125 -0.23375 0.65875 0 0 Z " fill="#5967C9" transform="translate(436,678)"/>
<path d="M0 0 C2.31 0 4.62 0 7 0 C5.02 2.31 3.04 4.62 1 7 C0.34 6.34 -0.32 5.68 -1 5 C-0.625 2.375 -0.625 2.375 0 0 Z " fill="#5E6EE0" transform="translate(225,665)"/>
<path d="M0 0 C-2.96348429 1.9756562 -3.68020373 2.26376859 -7.01171875 2.4140625 C-8.14770508 2.47207031 -8.14770508 2.47207031 -9.30664062 2.53125 C-10.09232422 2.5621875 -10.87800781 2.593125 -11.6875 2.625 C-12.48478516 2.66367187 -13.28207031 2.70234375 -14.10351562 2.7421875 C-16.06863475 2.83632494 -18.0342854 2.91924632 -20 3 C-16.73061378 1.13739295 -13.70063691 0.42773089 -10 -0.1875 C-8.453125 -0.45626953 -8.453125 -0.45626953 -6.875 -0.73046875 C-4.20914487 -0.98039267 -2.50755482 -0.84991642 0 0 Z " fill="#0A113F" transform="translate(420,481)"/>
<path d="M0 0 C5.50808397 0.59015185 10.64878069 1.56663769 16 3 C16 3.33 16 3.66 16 4 C10.22192976 4.2358396 5.48675196 3.86783046 0 2 C0 1.34 0 0.68 0 0 Z " fill="#131C4F" transform="translate(336,480)"/>
<path d="M0 0 C2.31 0 4.62 0 7 0 C5.35 1.98 3.7 3.96 2 6 C1.67 5.34 1.34 4.68 1 4 C0.34 4 -0.32 4 -1 4 C-0.67 2.68 -0.34 1.36 0 0 Z " fill="#5B6EE1" transform="translate(218,672)"/>
<path d="M0 0 C0 0.66 0 1.32 0 2 C-0.928125 2.309375 -0.928125 2.309375 -1.875 2.625 C-4.84653645 4.54775888 -5.13024659 6.66594527 -6 10 C-7.32 10 -8.64 10 -10 10 C-9.67 8.68 -9.34 7.36 -9 6 C-8.67 6.33 -8.34 6.66 -8 7 C-7.7525 6.21625 -7.505 5.4325 -7.25 4.625 C-6 2 -6 2 -4 0.6875 C-2 0 -2 0 0 0 Z " fill="#5B71EC" transform="translate(463,650)"/>
<path d="M0 0 C0.99 0.33 1.98 0.66 3 1 C-0.3 4.3 -3.6 7.6 -7 11 C-7.33 9.68 -7.66 8.36 -8 7 C-7.01 6.67 -6.02 6.34 -5 6 C-4.67 5.34 -4.34 4.68 -4 4 C-3.34 4 -2.68 4 -2 4 C-1.34 2.68 -0.68 1.36 0 0 Z " fill="#060C3A" transform="translate(221,488)"/>
<path d="M0 0 C0.6875 1.75 0.6875 1.75 1 4 C-0.125 6.25 -0.125 6.25 -2 8 C-4.6875 8.25 -4.6875 8.25 -7 8 C-6.02133662 6.85373678 -5.04205413 5.70800212 -4.0625 4.5625 C-3.51722656 3.92441406 -2.97195312 3.28632813 -2.41015625 2.62890625 C-1.63204305 1.73008851 -0.84063472 0.84063472 0 0 Z " fill="#596ACA" transform="translate(236,476)"/>
<path d="M0 0 C1 3 1 3 -0.125 5.6875 C-2 8 -2 8 -4.6875 8.3125 C-5.450625 8.209375 -6.21375 8.10625 -7 8 C-3.375 2.25 -3.375 2.25 0 0 Z " fill="#0C1342" transform="translate(441,676)"/>
<path d="M0 0 C0.33 0.99 0.66 1.98 1 3 C-0.9628843 6.1708131 -2.12536 7.74158364 -5.75 8.8125 C-6.4925 8.874375 -7.235 8.93625 -8 9 C-7.04663979 7.68388323 -6.08714226 6.37221039 -5.125 5.0625 C-4.59132813 4.33160156 -4.05765625 3.60070312 -3.5078125 2.84765625 C-2 1 -2 1 0 0 Z " fill="#10164C" transform="translate(512,605)"/>
<path d="M0 0 C0 3 0 3 -1.75 5.1875 C-4 7 -4 7 -8 7 C-6.86500606 3.70851757 -6.00716624 3.0040131 -2.875 1.25 C-1.92625 0.8375 -0.9775 0.425 0 0 Z " fill="#5C6EDC" transform="translate(223,492)"/>
<path d="M0 0 C0.99 0.33 1.98 0.66 3 1 C2.02433888 2.16959987 1.044375 3.33561177 0.0625 4.5 C-0.48277344 5.1496875 -1.02804687 5.799375 -1.58984375 6.46875 C-2.05519531 6.9740625 -2.52054687 7.479375 -3 8 C-3.33 8 -3.66 8 -4 8 C-4.25 5.6875 -4.25 5.6875 -4 3 C-2.1875 1.125 -2.1875 1.125 0 0 Z " fill="#606FDC" transform="translate(261,632)"/>
<path d="M0 0 C0.66 0 1.32 0 2 0 C0.95652174 6.26086957 0.95652174 6.26086957 -1 9 C-3.625 9.75 -3.625 9.75 -6 10 C-6 9.34 -6 8.68 -6 8 C-4.33333333 6.33333333 -2.66666667 4.66666667 -1 3 C-0.67 2.01 -0.34 1.02 0 0 Z " fill="#5B73EE" transform="translate(483,626)"/>
<path d="M0 0 C3.63 0.33 7.26 0.66 11 1 C7 4 7 4 3 4 C3 3.34 3 2.68 3 2 C2.01 1.67 1.02 1.34 0 1 C0 0.67 0 0.34 0 0 Z " fill="#6170E2" transform="translate(431,603)"/>
<path d="M0 0 C1.65 0.99 3.3 1.98 5 3 C4.25 4.9375 4.25 4.9375 3 7 C0.875 7.75 0.875 7.75 -1 8 C-1 7.34 -1 6.68 -1 6 C-1.66 5.67 -2.32 5.34 -3 5 C-1.68 4.67 -0.36 4.34 1 4 C0.67 2.68 0.34 1.36 0 0 Z " fill="#5D73F0" transform="translate(443,600)"/>
<path d="M0 0 C1.32 0.33 2.64 0.66 4 1 C3.57576756 2.46224799 3.13509755 3.91973412 2.6875 5.375 C2.44386719 6.18710937 2.20023437 6.99921875 1.94921875 7.8359375 C1 10 1 10 -2 12 C-1.67 11.319375 -1.34 10.63875 -1 9.9375 C0.17307315 6.49159762 0.14180493 3.61602578 0 0 Z " fill="#5D72ED" transform="translate(299,576)"/>
<path d="M0 0 C1.98 0 3.96 0 6 0 C6 2.64 6 5.28 6 8 C5.01 8 4.02 8 3 8 C3.33 6.35 3.66 4.7 4 3 C2.68 3 1.36 3 0 3 C0 2.01 0 1.02 0 0 Z " fill="#373F7E" transform="translate(538,410)"/>
<path d="M0 0 C0.33 0.99 0.66 1.98 1 3 C-1.3125 5.5 -1.3125 5.5 -4 8 C-4.99 8 -5.98 8 -7 8 C-7 7.34 -7 6.68 -7 6 C-5.46875 4.4921875 -5.46875 4.4921875 -3.5 2.875 C-2.8503125 2.33617187 -2.200625 1.79734375 -1.53125 1.2421875 C-1.0259375 0.83226562 -0.520625 0.42234375 0 0 Z " fill="#0E1441" transform="translate(223,674)"/>
<path d="M0 0 C-3.6125362 1.84827434 -7.2089881 3.55049545 -11 5 C-11 4.01 -11 3.02 -11 2 C-3.57142857 -1.57142857 -3.57142857 -1.57142857 0 0 Z " fill="#03082B" transform="translate(331,613)"/>
<path d="M0 0 C0.33 0.66 0.66 1.32 1 2 C0.01 3.485 0.01 3.485 -1 5 C-1.66 5 -2.32 5 -3 5 C-3 6.32 -3 7.64 -3 9 C-4.98 9.33 -6.96 9.66 -9 10 C-6.1310659 6.49352499 -3.2682346 3.14718888 0 0 Z " fill="#0C113F" transform="translate(433,684)"/>
<path d="M0 0 C0.66 0.33 1.32 0.66 2 1 C1.09972412 2.03531726 0.17906965 3.05294165 -0.75 4.0625 C-1.51570313 4.91521484 -1.51570313 4.91521484 -2.296875 5.78515625 C-2.85890625 6.18605469 -3.4209375 6.58695313 -4 7 C-5.32 6.67 -6.64 6.34 -8 6 C-5.36 4.02 -2.72 2.04 0 0 Z " fill="#060B2F" transform="translate(506,613)"/>
<path d="M0 0 C2.26676602 4.53353204 2.26676602 4.53353204 1.75 8.0625 C1.66234375 8.73410156 1.5746875 9.40570312 1.484375 10.09765625 C1 12 1 12 -1 15 C-0.67 10.05 -0.34 5.1 0 0 Z " fill="#0E1446" transform="translate(317,528)"/>
<path d="M0 0 C0.33 0 0.66 0 1 0 C1.20413361 5.73842251 1.27141454 10.60539047 -1 16 C-1.33 16 -1.66 16 -2 16 C-2.20674944 10.21101581 -1.59162079 5.57067277 0 0 Z " fill="#5763C2" transform="translate(435,496)"/>
<path d="M0 0 C2.96175123 0.61277612 4.38058783 1.25372522 7 3 C5.35 3 3.7 3 2 3 C2.33 3.66 2.66 4.32 3 5 C3.039992 6.99960012 3.04346799 9.00047242 3 11 C0.87953208 7.46588679 0.46800711 4.05606165 0 0 Z " fill="#15215F" transform="translate(311,473)"/>
<path d="M0 0 C0.33 1.32 0.66 2.64 1 4 C0.34 4 -0.32 4 -1 4 C-1 4.99 -1 5.98 -1 7 C-2.98 7.33 -4.96 7.66 -7 8 C-6.02133662 6.85373678 -5.04205413 5.70800212 -4.0625 4.5625 C-3.51722656 3.92441406 -2.97195313 3.28632813 -2.41015625 2.62890625 C-1.63204305 1.73008851 -0.84063472 0.84063472 0 0 Z " fill="#5868C5" transform="translate(299,413)"/>
<path d="M0 0 C-1.26941497 3.91402949 -2.51167694 5.79072873 -6 8 C-5.6875 5.125 -5.6875 5.125 -5 2 C-2 0 -2 0 0 0 Z " fill="#5F6EDA" transform="translate(463,652)"/>
<path d="M0 0 C-4.95 2.97 -4.95 2.97 -10 6 C-10.33 5.34 -10.66 4.68 -11 4 C-10.34 4 -9.68 4 -9 4 C-9 3.34 -9 2.68 -9 2 C-5.33876089 -0.74592933 -4.63002084 -1.15750521 0 0 Z " fill="#030830" transform="translate(320,619)"/>
<path d="M0 0 C0.99 0.33 1.98 0.66 3 1 C1.02 3.31 -0.96 5.62 -3 8 C-3.66 7.67 -4.32 7.34 -5 7 C-5 6.34 -5 5.68 -5 5 C-4.01 5 -3.02 5 -2 5 C-1.34 3.35 -0.68 1.7 0 0 Z " fill="#5D6DD6" transform="translate(237,656)"/>
<path d="M0 0 C2.60334924 2.71182212 2.99456691 3.89133813 3.1875 7.75 C3.0946875 9.35875 3.0946875 9.35875 3 11 C1 10 1 10 0 7 C-0.03954234 4.66700175 -0.04401732 2.33291811 0 0 Z " fill="#4D5EB2" transform="translate(436,581)"/>
<path d="M0 0 C0.33 0.66 0.66 1.32 1 2 C-0.125 4.5625 -0.125 4.5625 -2 7 C-4.6875 7.8125 -4.6875 7.8125 -7 8 C-6.02133662 6.85373678 -5.04205413 5.70800212 -4.0625 4.5625 C-3.51722656 3.92441406 -2.97195313 3.28632812 -2.41015625 2.62890625 C-1.63204305 1.73008851 -0.84063472 0.84063472 0 0 Z " fill="#5764C5" transform="translate(268,664)"/>
<path d="M0 0 C0.33 0.99 0.66 1.98 1 3 C0.01 3.33 -0.98 3.66 -2 4 C-2 4.99 -2 5.98 -2 7 C-3.65 7.33 -5.3 7.66 -7 8 C-6.02133662 6.85373678 -5.04205413 5.70800212 -4.0625 4.5625 C-3.51722656 3.92441406 -2.97195313 3.28632812 -2.41015625 2.62890625 C-1.63204305 1.73008851 -0.84063472 0.84063472 0 0 Z " fill="#0D1546" transform="translate(457,660)"/>
<path d="M0 0 C0.66 0 1.32 0 2 0 C2.26785714 8.03571429 2.26785714 8.03571429 0 12 C-0.19477739 10.37585622 -0.38059458 8.75063577 -0.5625 7.125 C-0.66691406 6.22007812 -0.77132813 5.31515625 -0.87890625 4.3828125 C-1 2 -1 2 0 0 Z " fill="#6176E8" transform="translate(313,536)"/>
<path d="M0 0 C0.99 0.33 1.98 0.66 3 1 C0.69 3.31 -1.62 5.62 -4 8 C-4.33 7.34 -4.66 6.68 -5 6 C-2.59016393 1.29508197 -2.59016393 1.29508197 0 0 Z " fill="#050D3A" transform="translate(237,472)"/>
<path d="M0 0 C0.99 0.33 1.98 0.66 3 1 C0.69 3.31 -1.62 5.62 -4 8 C-4.33 7.01 -4.66 6.02 -5 5 C-4.67 4.34 -4.34 3.68 -4 3 C-3.01 3 -2.02 3 -1 3 C-0.67 2.01 -0.34 1.02 0 0 Z " fill="#060F34" transform="translate(277,432)"/>
<path d="M0 0 C0.99 0.33 1.98 0.66 3 1 C0.69 3.31 -1.62 5.62 -4 8 C-4.33 7.01 -4.66 6.02 -5 5 C-3.35 3.35 -1.7 1.7 0 0 Z " fill="#060E3C" transform="translate(285,424)"/>
<path d="M0 0 C0.99 0.33 1.98 0.66 3 1 C0.69 3.31 -1.62 5.62 -4 8 C-4.33 7.01 -4.66 6.02 -5 5 C-3.35 3.35 -1.7 1.7 0 0 Z " fill="#060E3B" transform="translate(301,408)"/>
<path d="M0 0 C0.33 0.66 0.66 1.32 1 2 C-0.98 4.97 -0.98 4.97 -3 8 C-4.32 7.67 -5.64 7.34 -7 7 C-6.21625 6.401875 -5.4325 5.80375 -4.625 5.1875 C-1.85425677 3.08914751 -1.85425677 3.08914751 0 0 Z " fill="#0B0F41" transform="translate(449,668)"/>
<path d="M0 0 C0.33 0.99 0.66 1.98 1 3 C0.01 3.33 -0.98 3.66 -2 4 C-2.33 4.99 -2.66 5.98 -3 7 C-5.0625 7.6875 -5.0625 7.6875 -7 8 C-5.50902342 4.2047869 -3.24299151 2.38957269 0 0 Z " fill="#131D49" transform="translate(253,644)"/>
<path d="M0 0 C0.66 1.32 1.32 2.64 2 4 C-1 6 -1 6 -3 7 C-3.66 6.34 -4.32 5.68 -5 5 C-3.35 3.35 -1.7 1.7 0 0 Z " fill="#0F1140" transform="translate(481,636)"/>
<path d="M0 0 C2.25 0.25 2.25 0.25 4 1 C2.25 3.0625 2.25 3.0625 0 5 C-2.25 4.75 -2.25 4.75 -4 4 C-2.25 1.9375 -2.25 1.9375 0 0 Z " fill="#5463B6" transform="translate(310,624)"/>
<path d="M0 0 C0.33 0 0.66 0 1 0 C1.33 2.31 1.66 4.62 2 7 C1.01 7.495 1.01 7.495 0 8 C-0.65555119 10.52733235 -0.65555119 10.52733235 -1 13 C-1.33 13 -1.66 13 -2 13 C-2 10.36 -2 7.72 -2 5 C-1.34 5 -0.68 5 0 5 C0 3.35 0 1.7 0 0 Z " fill="#5B6FD9" transform="translate(434,507)"/>
<path d="M0 0 C0.99 0.33 1.98 0.66 3 1 C0.69 3.31 -1.62 5.62 -4 8 C-4.33 7.01 -4.66 6.02 -5 5 C-4.01 4.67 -3.02 4.34 -2 4 C-0.79117904 1.99983534 -0.79117904 1.99983534 0 0 Z " fill="#060C3B" transform="translate(269,440)"/>
<path d="M0 0 C0.66 0 1.32 0 2 0 C1.875 1.75 1.875 1.75 1 4 C-2.0625 6.25 -2.0625 6.25 -5 8 C-5 6.68 -5 5.36 -5 4 C-4.0409375 3.8453125 -4.0409375 3.8453125 -3.0625 3.6875 C-2.381875 3.460625 -1.70125 3.23375 -1 3 C-0.67 2.01 -0.34 1.02 0 0 Z " fill="#5E6FEC" transform="translate(281,433)"/>
<path d="M0 0 C-1.49097658 3.7952131 -3.75700849 5.61042731 -7 8 C-4.18918919 0 -4.18918919 0 0 0 Z " fill="#050C2F" transform="translate(311,400)"/>
<path d="M0 0 C0 3 0 3 -1 6 C-4.0625 7.1875 -4.0625 7.1875 -7 8 C-6.02133662 6.85373678 -5.04205413 5.70800212 -4.0625 4.5625 C-3.51722656 3.92441406 -2.97195313 3.28632812 -2.41015625 2.62890625 C-1.63204305 1.73008851 -0.84063472 0.84063472 0 0 Z " fill="#5664BD" transform="translate(260,672)"/>
<path d="M0 0 C0.66 0 1.32 0 2 0 C1.34 1.32 0.68 2.64 0 4 C-0.66 4 -1.32 4 -2 4 C-2.33 4.99 -2.66 5.98 -3 7 C-4.32 6.67 -5.64 6.34 -7 6 C-2.25 2 -2.25 2 0 2 C0 1.34 0 0.68 0 0 Z " fill="#0A0416" transform="translate(238,665)"/>
<path d="M0 0 C0.99 0 1.98 0 3 0 C1.50902342 3.7952131 -0.75700849 5.61042731 -4 8 C-4 7.01 -4 6.02 -4 5 C-3.34 5 -2.68 5 -2 5 C-2 4.34 -2 3.68 -2 3 C-1.34 3 -0.68 3 0 3 C0 2.01 0 1.02 0 0 Z " fill="#5D6CD1" transform="translate(269,624)"/>
<path d="M0 0 C-2.97 2.475 -2.97 2.475 -6 5 C-6 3.35 -6 1.7 -6 0 C-3 -1 -3 -1 0 0 Z " fill="#080F30" transform="translate(256,677)"/>
<path d="M0 0 C0.66 0.33 1.32 0.66 2 1 C-1.465 3.97 -1.465 3.97 -5 7 C-5 4 -5 4 -3.625 2.375 C-2 1 -2 1 0 0 Z " fill="#6173F0" transform="translate(289,646)"/>
<path d="M0 0 C1.65 0 3.3 0 5 0 C4.67 0.99 4.34 1.98 4 3 C2.35 3.33 0.7 3.66 -1 4 C-0.67 2.68 -0.34 1.36 0 0 Z " fill="#04041E" transform="translate(434,684)"/>
<path d="M0 0 C0.66 0.66 1.32 1.32 2 2 C0.6875 3.5 0.6875 3.5 -1 5 C-1.99 5 -2.98 5 -4 5 C-3.6875 3.0625 -3.6875 3.0625 -3 1 C-2.01 0.67 -1.02 0.34 0 0 Z " fill="#04041D" transform="translate(453,667)"/>
<path d="M0 0 C0.33 0.66 0.66 1.32 1 2 C1.66 2.33 2.32 2.66 3 3 C1.1875 4.0625 1.1875 4.0625 -1 5 C-1.99 4.67 -2.98 4.34 -4 4 C-2.68 2.68 -1.36 1.36 0 0 Z " fill="#5766C9" transform="translate(273,659)"/>
<path d="M0 0 C0.66 0 1.32 0 2 0 C1.34 1.32 0.68 2.64 0 4 C-0.66 4 -1.32 4 -2 4 C-2.33 4.99 -2.66 5.98 -3 7 C-3.66 6.67 -4.32 6.34 -5 6 C-3.38405168 3.95880212 -1.7143618 1.95927063 0 0 Z " fill="#0A0314" transform="translate(270,633)"/>
<path d="M0 0 C0.66 0 1.32 0 2 0 C1.125 3.875 1.125 3.875 0 5 C-1.99958364 5.04080783 -4.00045254 5.04254356 -6 5 C-5.38125 4.731875 -4.7625 4.46375 -4.125 4.1875 C-1.7004767 3.04443152 -1.7004767 3.04443152 0 0 Z " fill="#5E73DD" transform="translate(499,614)"/>
<path d="M0 0 C0.33 0.66 0.66 1.32 1 2 C0.06421005 4.35981813 -0.93347808 6.69631264 -2 9 C-2.66 9 -3.32 9 -4 9 C-2.94124926 5.59687262 -1.99097846 2.98646769 0 0 Z " fill="#151D52" transform="translate(298,591)"/>
</svg>
